<?xml version="1.0" encoding="UTF-8" standalone="no"?>
<!DOCTYPE svg PUBLIC "-//W3C//DTD SVG 1.1//EN"
 "http://www.w3.org/Graphics/SVG/1.1/DTD/svg11.dtd">
<!-- Generated by graphviz version 15.0.0 (20260523.1842)
 -->
<!-- Title: ApplicationAnalysisRequestFlow Pages: 1 -->
<svg width="2804pt" height="1073pt"
 viewBox="0.00 0.00 2804.00 1073.00" xmlns="http://www.w3.org/2000/svg" xmlns:xlink="http://www.w3.org/1999/xlink">
  <title id="title">Схема потока анализа заявки с пометками статуса компонентов</title>
  <desc id="desc">Потоковая диаграмма Reqcore и bi-encoder сервиса. Статус элементов кодируется цветом рамки по легенде SAT (см. подпись к рисунку).</desc>

<g id="graph0" class="graph" transform="scale(1.33333 1.33333) rotate(0) translate(32.4 772.02)">

<polygon fill="#ffffff" stroke="none" points="-32.4,32.4 -32.4,-772.02 2070.4,-772.02 2070.4,32.4 -32.4,32.4"/>
<text xml:space="preserve" text-anchor="start" x="14" y="-713.52" font-family="Arial" font-weight="bold" font-size="18.00">Поток анализа заявки в Reqcore и bi&#45;encoder сервисе</text>
<text xml:space="preserve" text-anchor="start" x="14" y="-690.12" font-family="Arial" font-size="11.00">Нотация SAT: статус элемента задаётся цветом рамки (см. легенду), а не отдельной строкой внутри блока.</text>
<text xml:space="preserve" text-anchor="start" x="14" y="-669.37" font-family="Arial" font-size="10.00" fill="#546e7a">Базовая нотация — потоковая схема (flowchart); надстройка SAT — авторская шкала достоверности утверждений о компонентах.</text>
<g id="clust2" class="cluster">
<title>cluster_biencoder</title>
<path fill="#fafcfd" stroke="#b0bec5" d="M20,-349.22C20,-349.22 1217,-349.22 1217,-349.22 1223,-349.22 1229,-355.22 1229,-361.22 1229,-361.22 1229,-480.51 1229,-480.51 1229,-486.51 1223,-492.51 1217,-492.51 1217,-492.51 20,-492.51 20,-492.51 14,-492.51 8,-486.51 8,-480.51 8,-480.51 8,-361.22 8,-361.22 8,-355.22 14,-349.22 20,-349.22"/>
<text xml:space="preserve" text-anchor="middle" x="61.75" y="-477.11" font-family="Arial" font-size="12.00">Ветка bi&#45;encoder</text>
</g>
<g id="clust4" class="cluster">
<title>cluster_llm</title>
<path fill="#fafcfd" stroke="#b0bec5" d="M1249,-349.22C1249,-349.22 2018,-349.22 2018,-349.22 2024,-349.22 2030,-355.22 2030,-361.22 2030,-361.22 2030,-480.51 2030,-480.51 2030,-486.51 2024,-492.51 2018,-492.51 2018,-492.51 1249,-492.51 1249,-492.51 1243,-492.51 1237,-486.51 1237,-480.51 1237,-480.51 1237,-361.22 1237,-361.22 1237,-355.22 1243,-349.22 1249,-349.22"/>
<text xml:space="preserve" text-anchor="middle" x="1294.88" y="-477.11" font-family="Arial" font-size="12.00">Ветка LLM scoring</text>
</g>
<!-- ui -->
<g id="node1" class="node">
<title>ui</title>
<path fill="#e8f5e9" stroke="#2e7d32" stroke-width="2.5" d="M313.88,-630.21C313.88,-630.21 184.12,-630.21 184.12,-630.21 178.12,-630.21 172.12,-624.21 172.12,-618.21 172.12,-618.21 172.12,-578.67 172.12,-578.67 172.12,-572.67 178.12,-566.67 184.12,-566.67 184.12,-566.67 313.88,-566.67 313.88,-566.67 319.88,-566.67 325.88,-572.67 325.88,-578.67 325.88,-578.67 325.88,-618.21 325.88,-618.21 325.88,-624.21 319.88,-630.21 313.88,-630.21"/>
<text xml:space="preserve" text-anchor="middle" x="249" y="-608.24" font-family="Arial" font-size="11.00">Интерфейс Reqcore</text>
<text xml:space="preserve" text-anchor="middle" x="249" y="-594.74" font-family="Arial" font-size="11.00">(Reqcore UI)</text>
<text xml:space="preserve" text-anchor="middle" x="249" y="-581.24" font-family="Arial" font-size="11.00">Запрос анализа заявки</text>
</g>
<!-- analyze -->
<g id="node2" class="node">
<title>analyze</title>
<path fill="#e8f5e9" stroke="#2e7d32" stroke-width="2.5" d="M559,-630.21C559,-630.21 409,-630.21 409,-630.21 403,-630.21 397,-624.21 397,-618.21 397,-618.21 397,-578.67 397,-578.67 397,-572.67 403,-566.67 409,-566.67 409,-566.67 559,-566.67 559,-566.67 565,-566.67 571,-572.67 571,-578.67 571,-578.67 571,-618.21 571,-618.21 571,-624.21 565,-630.21 559,-630.21"/>
<text xml:space="preserve" text-anchor="middle" x="484" y="-608.24" font-family="Arial" font-size="11.00">Точка анализа заявки</text>
<text xml:space="preserve" text-anchor="middle" x="484" y="-594.74" font-family="Arial" font-size="11.00">(/api/applications/:id/analyze)</text>
<text xml:space="preserve" text-anchor="middle" x="484" y="-581.24" font-family="Arial" font-size="11.00">Выбор ветки скоринга</text>
</g>
<!-- ui&#45;&gt;analyze -->
<g id="edge1" class="edge">
<title>ui&#45;&gt;analyze</title>
<path fill="none" stroke="#263238" stroke-width="2.2" d="M327.11,-598.44C327.26,-598.44 327.33,-598.44 327.33,-598.44 327.33,-598.44 361.06,-598.44 384.25,-598.44"/>
<polygon fill="#263238" stroke="#263238" stroke-width="2.2" points="384.23,-601.42 392.73,-598.44 384.23,-595.47 384.23,-601.42"/>
</g>
<!-- provider -->
<g id="node3" class="node">
<title>provider</title>
<path fill="#e3f2fd" stroke="#1565c0" stroke-width="2.5" d="M783.8,-652.82C783.8,-652.82 653.38,-602.74 653.38,-602.74 647.78,-600.59 647.78,-596.29 653.38,-594.14 653.38,-594.14 783.8,-544.06 783.8,-544.06 789.4,-541.91 800.6,-541.91 806.2,-544.06 806.2,-544.06 936.62,-594.14 936.62,-594.14 942.22,-596.29 942.22,-600.59 936.62,-602.74 936.62,-602.74 806.2,-652.82 806.2,-652.82 800.6,-654.97 789.4,-654.97 783.8,-652.82"/>
<text xml:space="preserve" text-anchor="middle" x="795" y="-601.49" font-family="Arial" font-size="11.00">Провайдер</text>
<text xml:space="preserve" text-anchor="middle" x="795" y="-587.99" font-family="Arial" font-size="11.00">(provider = biencoder?)</text>
</g>
<!-- analyze&#45;&gt;provider -->
<g id="edge2" class="edge">
<title>analyze&#45;&gt;provider</title>
<path fill="none" stroke="#263238" stroke-width="2.2" d="M571.92,-598.44C581.39,-598.44 587.67,-598.44 587.67,-598.44 587.67,-598.44 606,-598.44 627.24,-598.44"/>
<polygon fill="#263238" stroke="#263238" stroke-width="2.2" points="627.06,-601.42 635.56,-598.44 627.06,-595.47 627.06,-601.42"/>
</g>
<!-- bi_gate -->
<g id="node4" class="node">
<title>bi_gate</title>
<ellipse fill="#fafcfd" stroke="#b0bec5" stroke-width="2.5" cx="34" cy="-409.74" rx="4.32" ry="4.32"/>
</g>
<!-- provider&#45;&gt;bi_gate -->
<g id="edge11" class="edge">
<title>provider&#45;&gt;bi_gate</title>
<path fill="none" stroke="#263238" stroke-width="2.2" d="M706.14,-572.56C650.39,-556.95 589,-539.76 589,-539.76 589,-539.76 177.29,-500.62 103.31,-493.59"/>
<polygon fill="#263238" stroke="#263238" stroke-width="2.2" points="104.06,-490.67 95.31,-492.83 103.5,-496.59 104.06,-490.67"/>
<text xml:space="preserve" text-anchor="middle" x="332.35" y="-503.36" font-family="Arial" font-size="12.00" fill="#37474f">да</text>
</g>
<!-- llm_gate -->
<g id="node10" class="node">
<title>llm_gate</title>
<ellipse fill="#fafcfd" stroke="#b0bec5" stroke-width="2.5" cx="1263" cy="-409.74" rx="4.32" ry="4.32"/>
</g>
<!-- provider&#45;&gt;llm_gate -->
<g id="edge12" class="edge">
<title>provider&#45;&gt;llm_gate</title>
<path fill="none" stroke="#263238" stroke-width="2.2" d="M890.03,-574.93C1002.41,-548.31 1180.08,-506.23 1226.57,-495.22"/>
<polygon fill="#263238" stroke="#263238" stroke-width="2.2" points="1227.17,-498.13 1234.76,-493.28 1225.8,-492.34 1227.17,-498.13"/>
<text xml:space="preserve" text-anchor="middle" x="1209.11" y="-503.36" font-family="Arial" font-size="12.00" fill="#37474f">нет</text>
</g>
<!-- bicall -->
<g id="node5" class="node">
<title>bicall</title>
<path fill="#e8f5e9" stroke="#2e7d32" stroke-width="2.5" d="M264.25,-448.26C264.25,-448.26 121.75,-448.26 121.75,-448.26 115.75,-448.26 109.75,-442.26 109.75,-436.26 109.75,-436.26 109.75,-383.22 109.75,-383.22 109.75,-377.22 115.75,-371.22 121.75,-371.22 121.75,-371.22 264.25,-371.22 264.25,-371.22 270.25,-371.22 276.25,-377.22 276.25,-383.22 276.25,-383.22 276.25,-436.26 276.25,-436.26 276.25,-442.26 270.25,-448.26 264.25,-448.26"/>
<text xml:space="preserve" text-anchor="middle" x="193" y="-426.29" font-family="Arial" font-size="11.00">Вызов bi&#45;encoder сервиса</text>
<text xml:space="preserve" text-anchor="middle" x="193" y="-412.79" font-family="Arial" font-size="11.00">URL (BIENCODER_URL)</text>
<text xml:space="preserve" text-anchor="middle" x="193" y="-399.29" font-family="Arial" font-size="11.00">маршрут (/score)</text>
<text xml:space="preserve" text-anchor="middle" x="193" y="-385.79" font-family="Arial" font-size="11.00">HTTP POST, Python API</text>
</g>
<!-- bi_gate&#45;&gt;bicall -->
<g id="edge3" class="edge">
<title>bi_gate&#45;&gt;bicall</title>
<path fill="none" stroke="#263238" stroke-width="2.2" d="M39.28,-409.74C52.68,-409.74 87,-409.74 87,-409.74 87,-409.74 91.16,-409.74 97.16,-409.74"/>
<polygon fill="#263238" stroke="#263238" stroke-width="2.2" points="96.73,-412.72 105.23,-409.74 96.73,-406.77 96.73,-412.72"/>
</g>
<!-- fastapi -->
<g id="node6" class="node">
<title>fastapi</title>
<path fill="#e8f5e9" stroke="#2e7d32" stroke-width="2.5" d="M494.5,-441.51C494.5,-441.51 359.5,-441.51 359.5,-441.51 353.5,-441.51 347.5,-435.51 347.5,-429.51 347.5,-429.51 347.5,-389.97 347.5,-389.97 347.5,-383.97 353.5,-377.97 359.5,-377.97 359.5,-377.97 494.5,-377.97 494.5,-377.97 500.5,-377.97 506.5,-383.97 506.5,-389.97 506.5,-389.97 506.5,-429.51 506.5,-429.51 506.5,-435.51 500.5,-441.51 494.5,-441.51"/>
<text xml:space="preserve" text-anchor="middle" x="427" y="-419.54" font-family="Arial" font-size="11.00">Сервис FastAPI</text>
<text xml:space="preserve" text-anchor="middle" x="427" y="-406.04" font-family="Arial" font-size="11.00">(11_api_server.py)</text>
<text xml:space="preserve" text-anchor="middle" x="427" y="-392.54" font-family="Arial" font-size="11.00">Загрузка ранжировщика</text>
</g>
<!-- bicall&#45;&gt;fastapi -->
<g id="edge4" class="edge">
<title>bicall&#45;&gt;fastapi</title>
<path fill="none" stroke="#263238" stroke-width="2.2" d="M277.38,-409.74C289.81,-409.74 317.55,-409.74 334.62,-409.74"/>
<polygon fill="#263238" stroke="#263238" stroke-width="2.2" points="334.57,-412.72 343.07,-409.74 334.57,-406.77 334.57,-412.72"/>
</g>
<!-- ranker -->
<g id="node7" class="node">
<title>ranker</title>
<path fill="#e0f2f1" stroke="#00695c" stroke-width="2.5" d="M739.62,-441.51C739.62,-441.51 590.38,-441.51 590.38,-441.51 584.38,-441.51 578.38,-435.51 578.38,-429.51 578.38,-429.51 578.38,-389.97 578.38,-389.97 578.38,-383.97 584.38,-377.97 590.38,-377.97 590.38,-377.97 739.62,-377.97 739.62,-377.97 745.62,-377.97 751.62,-383.97 751.62,-389.97 751.62,-389.97 751.62,-429.51 751.62,-429.51 751.62,-435.51 745.62,-441.51 739.62,-441.51"/>
<text xml:space="preserve" text-anchor="middle" x="665" y="-419.54" font-family="Arial" font-size="11.00">Ранжировщик</text>
<text xml:space="preserve" text-anchor="middle" x="665" y="-406.04" font-family="Arial" font-size="11.00">(ATSRanker)</text>
<text xml:space="preserve" text-anchor="middle" x="665" y="-392.54" font-family="Arial" font-size="11.00">Косинусное сходство, top&#45;k</text>
</g>
<!-- fastapi&#45;&gt;ranker -->
<g id="edge5" class="edge">
<title>fastapi&#45;&gt;ranker</title>
<path fill="none" stroke="#263238" stroke-width="2.2" d="M507.71,-409.74C514.49,-409.74 544.86,-409.74 565.63,-409.74"/>
<polygon fill="#263238" stroke="#263238" stroke-width="2.2" points="565.46,-412.72 573.96,-409.74 565.46,-406.77 565.46,-412.72"/>
</g>
<!-- appscore -->
<g id="node8" class="node">
<title>appscore</title>
<path fill="#e8f5e9" stroke="#2e7d32" stroke-width="2.5" d="M946.88,-441.51C946.88,-441.51 835.12,-441.51 835.12,-441.51 829.12,-441.51 823.12,-435.51 823.12,-429.51 823.12,-429.51 823.12,-389.97 823.12,-389.97 823.12,-383.97 829.12,-377.97 835.12,-377.97 835.12,-377.97 946.88,-377.97 946.88,-377.97 952.88,-377.97 958.88,-383.97 958.88,-389.97 958.88,-389.97 958.88,-429.51 958.88,-429.51 958.88,-435.51 952.88,-441.51 946.88,-441.51"/>
<text xml:space="preserve" text-anchor="middle" x="891" y="-419.54" font-family="Arial" font-size="11.00">Оценка заявки</text>
<text xml:space="preserve" text-anchor="middle" x="891" y="-406.04" font-family="Arial" font-size="11.00">(application.score)</text>
<text xml:space="preserve" text-anchor="middle" x="891" y="-392.54" font-family="Arial" font-size="11.00">аудит (analysis_run)</text>
</g>
<!-- ranker&#45;&gt;appscore -->
<g id="edge6" class="edge">
<title>ranker&#45;&gt;appscore</title>
<path fill="none" stroke="#263238" stroke-width="2.2" d="M752.77,-409.74C768.49,-409.74 795.04,-409.74 810.58,-409.74"/>
<polygon fill="#263238" stroke="#263238" stroke-width="2.2" points="810.26,-412.72 818.76,-409.74 810.26,-406.77 810.26,-412.72"/>
</g>
<!-- onlyscore -->
<g id="node9" class="node">
<title>onlyscore</title>
<path fill="#f3e5f5" stroke="#6a1b9a" stroke-width="2.5" stroke-dasharray="5,2" d="M1195.12,-448.26C1195.12,-448.26 1042.88,-448.26 1042.88,-448.26 1036.88,-448.26 1030.88,-442.26 1030.88,-436.26 1030.88,-436.26 1030.88,-383.22 1030.88,-383.22 1030.88,-377.22 1036.88,-371.22 1042.88,-371.22 1042.88,-371.22 1195.12,-371.22 1195.12,-371.22 1201.12,-371.22 1207.12,-377.22 1207.12,-383.22 1207.12,-383.22 1207.12,-436.26 1207.12,-436.26 1207.12,-442.26 1201.12,-448.26 1195.12,-448.26"/>
<text xml:space="preserve" text-anchor="middle" x="1119" y="-426.29" font-family="Arial" font-size="11.00">Ветка «только score»</text>
<text xml:space="preserve" text-anchor="middle" x="1119" y="-412.79" font-family="Arial" font-size="11.00">(bi&#45;encoder)</text>
<text xml:space="preserve" text-anchor="middle" x="1119" y="-399.29" font-family="Arial" font-size="11.00">Не заменяет объяснимость</text>
<text xml:space="preserve" text-anchor="middle" x="1119" y="-385.79" font-family="Arial" font-size="11.00">по критериям</text>
</g>
<!-- appscore&#45;&gt;onlyscore -->
<g id="edge7" class="edge">
<title>appscore&#45;&gt;onlyscore</title>
<path fill="none" stroke="#263238" stroke-width="2.2" d="M959.99,-409.74C964.33,-409.74 967,-409.74 967,-409.74 967,-409.74 995.91,-409.74 1018.07,-409.74"/>
<polygon fill="#263238" stroke="#263238" stroke-width="2.2" points="1017.93,-412.72 1026.43,-409.74 1017.93,-406.77 1017.93,-412.72"/>
</g>
<!-- flow_anchor -->
<!-- onlyscore&#45;&gt;flow_anchor -->
<!-- llmprov -->
<g id="node11" class="node">
<title>llmprov</title>
<path fill="#e8f5e9" stroke="#2e7d32" stroke-width="2.5" d="M1497.12,-434.76C1497.12,-434.76 1350.88,-434.76 1350.88,-434.76 1344.88,-434.76 1338.88,-428.76 1338.88,-422.76 1338.88,-422.76 1338.88,-396.72 1338.88,-396.72 1338.88,-390.72 1344.88,-384.72 1350.88,-384.72 1350.88,-384.72 1497.12,-384.72 1497.12,-384.72 1503.12,-384.72 1509.12,-390.72 1509.12,-396.72 1509.12,-396.72 1509.12,-422.76 1509.12,-422.76 1509.12,-428.76 1503.12,-434.76 1497.12,-434.76"/>
<text xml:space="preserve" text-anchor="middle" x="1424" y="-412.79" font-family="Arial" font-size="11.00">Провайдер LLM</text>
<text xml:space="preserve" text-anchor="middle" x="1424" y="-399.29" font-family="Arial" font-size="11.00">OpenAI / Anthropic / Google</text>
</g>
<!-- llm_gate&#45;&gt;llmprov -->
<g id="edge8" class="edge">
<title>llm_gate&#45;&gt;llmprov</title>
<path fill="none" stroke="#263238" stroke-width="2.2" d="M1268.34,-409.74C1281.92,-409.74 1316.67,-409.74 1316.67,-409.74 1316.67,-409.74 1320.54,-409.74 1326.2,-409.74"/>
<polygon fill="#263238" stroke="#263238" stroke-width="2.2" points="1326.05,-412.72 1334.55,-409.74 1326.05,-406.77 1326.05,-412.72"/>
</g>
<!-- scoring -->
<g id="node12" class="node">
<title>scoring</title>
<path fill="#e8f5e9" stroke="#2e7d32" stroke-width="2.5" d="M1747.25,-441.51C1747.25,-441.51 1592.75,-441.51 1592.75,-441.51 1586.75,-441.51 1580.75,-435.51 1580.75,-429.51 1580.75,-429.51 1580.75,-389.97 1580.75,-389.97 1580.75,-383.97 1586.75,-377.97 1592.75,-377.97 1592.75,-377.97 1747.25,-377.97 1747.25,-377.97 1753.25,-377.97 1759.25,-383.97 1759.25,-389.97 1759.25,-389.97 1759.25,-429.51 1759.25,-429.51 1759.25,-435.51 1753.25,-441.51 1747.25,-441.51"/>
<text xml:space="preserve" text-anchor="middle" x="1670" y="-419.54" font-family="Arial" font-size="11.00">Скоринг заявки</text>
<text xml:space="preserve" text-anchor="middle" x="1670" y="-406.04" font-family="Arial" font-size="11.00">(scoreApplication())</text>
<text xml:space="preserve" text-anchor="middle" x="1670" y="-392.54" font-family="Arial" font-size="11.00">Критериальный LLM scoring</text>
</g>
<!-- llmprov&#45;&gt;scoring -->
<g id="edge9" class="edge">
<title>llmprov&#45;&gt;scoring</title>
<path fill="none" stroke="#263238" stroke-width="2.2" d="M1509.96,-409.74C1520.25,-409.74 1548.43,-409.74 1567.94,-409.74"/>
<polygon fill="#263238" stroke="#263238" stroke-width="2.2" points="1567.92,-412.72 1576.42,-409.74 1567.92,-406.77 1567.92,-412.72"/>
</g>
<!-- llmwrite -->
<g id="node13" class="node">
<title>llmwrite</title>
<path fill="#e8f5e9" stroke="#2e7d32" stroke-width="2.5" d="M1995.5,-448.26C1995.5,-448.26 1842.5,-448.26 1842.5,-448.26 1836.5,-448.26 1830.5,-442.26 1830.5,-436.26 1830.5,-436.26 1830.5,-383.22 1830.5,-383.22 1830.5,-377.22 1836.5,-371.22 1842.5,-371.22 1842.5,-371.22 1995.5,-371.22 1995.5,-371.22 2001.5,-371.22 2007.5,-377.22 2007.5,-383.22 2007.5,-383.22 2007.5,-436.26 2007.5,-436.26 2007.5,-442.26 2001.5,-448.26 1995.5,-448.26"/>
<text xml:space="preserve" text-anchor="middle" x="1919" y="-426.29" font-family="Arial" font-size="11.00">Запись LLM&#45;результата</text>
<text xml:space="preserve" text-anchor="middle" x="1919" y="-412.79" font-family="Arial" font-size="11.00">(criterion_score)</text>
<text xml:space="preserve" text-anchor="middle" x="1919" y="-399.29" font-family="Arial" font-size="11.00">(application.score)</text>
<text xml:space="preserve" text-anchor="middle" x="1919" y="-385.79" font-family="Arial" font-size="11.00">Итог по критериям и заявке</text>
</g>
<!-- scoring&#45;&gt;llmwrite -->
<g id="edge10" class="edge">
<title>scoring&#45;&gt;llmwrite</title>
<path fill="none" stroke="#263238" stroke-width="2.2" d="M1760.37,-409.74C1773.14,-409.74 1799.75,-409.74 1817.75,-409.74"/>
<polygon fill="#263238" stroke="#263238" stroke-width="2.2" points="1817.63,-412.72 1826.13,-409.74 1817.63,-406.77 1817.63,-412.72"/>
</g>
<!-- llmwrite&#45;&gt;flow_anchor -->
<!-- sat_legend -->
<g id="node14" class="node">
<title>sat_legend</title>
<path fill="lightgrey" stroke="none" stroke-width="2.5" d="M1375.38,-211.5C1375.38,-211.5 862.62,-211.5 862.62,-211.5 856.62,-211.5 850.62,-205.5 850.62,-199.5 850.62,-199.5 850.62,-12 850.62,-12 850.62,-6 856.62,0 862.62,0 862.62,0 1375.38,0 1375.38,0 1381.38,0 1387.38,-6 1387.38,-12 1387.38,-12 1387.38,-199.5 1387.38,-199.5 1387.38,-205.5 1381.38,-211.5 1375.38,-211.5"/>
<polygon fill="none" stroke="#cfd8dc" points="860.62,-170 860.62,-201.5 1377.38,-201.5 1377.38,-170 860.62,-170"/>
<text xml:space="preserve" text-anchor="start" x="869.62" y="-183.05" font-family="Arial" font-weight="bold" font-size="11.00">Легенда SAT (Status Assertion Taxonomy)</text>
<polygon fill="none" stroke="#cfd8dc" points="860.62,-130 860.62,-160 1377.38,-160 1377.38,-130 860.62,-130"/>
<text xml:space="preserve" text-anchor="start" x="869.62" y="-141.25" font-family="Arial" font-size="10.00" fill="#546e7a">C4 Container и BPMN — та же цветовая схема; BPMN — процесс, SAT — эпистемический статус элемента.</text>
<polygon fill="#fff8e1" stroke="none" points="860.62,-90 860.62,-120 1026.21,-120 1026.21,-90 860.62,-90"/>
<polygon fill="none" stroke="#cfd8dc" points="860.62,-90 860.62,-120 1026.21,-120 1026.21,-90 860.62,-90"/>
<text xml:space="preserve" text-anchor="start" x="882.67" y="-101.25" font-family="Arial" font-size="10.00">Архитектурное допущение</text>
<polygon fill="#e3f2fd" stroke="none" points="1036.21,-90 1036.21,-120 1186.04,-120 1186.04,-90 1036.21,-90"/>
<polygon fill="none" stroke="#cfd8dc" points="1036.21,-90 1036.21,-120 1186.04,-120 1186.04,-90 1036.21,-90"/>
<text xml:space="preserve" text-anchor="start" x="1058.25" y="-101.25" font-family="Arial" font-size="10.00">Архитектурный подход</text>
<polygon fill="#f3e5f5" stroke="none" points="1196.04,-90 1196.04,-120 1377.38,-120 1377.38,-90 1196.04,-90"/>
<polygon fill="none" stroke="#cfd8dc" points="1196.04,-90 1196.04,-120 1377.38,-120 1377.38,-90 1196.04,-90"/>
<text xml:space="preserve" text-anchor="start" x="1223.33" y="-101.25" font-family="Arial" font-size="10.00">Концептуальный компонент</text>
<polygon fill="#f1f8e9" stroke="none" points="860.62,-50 860.62,-80 1026.21,-80 1026.21,-50 860.62,-50"/>
<polygon fill="none" stroke="#cfd8dc" points="860.62,-50 860.62,-80 1026.21,-80 1026.21,-50 860.62,-50"/>
<text xml:space="preserve" text-anchor="start" x="912.67" y="-61.25" font-family="Arial" font-size="10.00">Исследовано</text>
<polygon fill="#e8f5e9" stroke="none" points="1036.21,-50 1036.21,-80 1186.04,-80 1186.04,-50 1036.21,-50"/>
<polygon fill="none" stroke="#cfd8dc" points="1036.21,-50 1036.21,-80 1186.04,-80 1186.04,-50 1036.21,-50"/>
<text xml:space="preserve" text-anchor="start" x="1081.88" y="-61.25" font-family="Arial" font-size="10.00">Реализовано</text>
<polygon fill="#e0f2f1" stroke="none" points="1196.04,-50 1196.04,-80 1377.38,-80 1377.38,-50 1196.04,-50"/>
<polygon fill="none" stroke="#cfd8dc" points="1196.04,-50 1196.04,-80 1377.38,-80 1377.38,-50 1196.04,-50"/>
<text xml:space="preserve" text-anchor="start" x="1218.08" y="-61.25" font-family="Arial" font-size="10.00">Экспериментально проверено</text>
<polygon fill="none" stroke="#cfd8dc" points="860.62,-10 860.62,-40 1377.38,-40 1377.38,-10 860.62,-10"/>
<text xml:space="preserve" text-anchor="start" x="869.62" y="-21.25" font-family="Arial" font-size="10.00" fill="#546e7a">Зелёная рамка — реализовано; бирюзовая — эксперимент; синяя заливка у ромба — выбор ветки.</text>
</g>
<!-- flow_anchor&#45;&gt;sat_legend -->
</g>
</svg>
