<svg xmlns="http://www.w3.org/2000/svg" width="1280" height="720" viewBox="0 0 1280 720" role="img" aria-labelledby="title desc">
  <title id="title">Схема потока анализа заявки с пометками статуса компонентов</title>
  <desc id="desc">Диаграмма разделяет архитектурный подход, реализованные компоненты и экспериментально исследованный bi-encoder scoring.</desc>
  <defs>
    <marker id="arrow" markerWidth="12" markerHeight="12" refX="10" refY="6" orient="auto" markerUnits="strokeWidth">
      <path d="M2,2 L10,6 L2,10 Z" fill="#263238"/>
    </marker>
    <style>
      text { font-family: Arial, sans-serif; fill: #1f2933; }
      .title { font-size: 24px; font-weight: 700; }
      .box-title { font-size: 16px; font-weight: 700; }
      .box-text { font-size: 13px; }
      .tag { font-size: 12px; font-weight: 700; }
      .arrow { stroke: #263238; stroke-width: 2.5; fill: none; marker-end: url(#arrow); }
      .implemented { fill: #e8f5e9; stroke: #2e7d32; stroke-width: 3; }
      .studied { fill: #f1f8e9; stroke: #558b2f; stroke-width: 3; }
      .experimental { fill: #e0f2f1; stroke: #00695c; stroke-width: 3; }
      .approach { fill: #e3f2fd; stroke: #1565c0; stroke-width: 3; }
      .assumption { fill: #fff8e1; stroke: #f57f17; stroke-width: 3; stroke-dasharray: 9 6; }
      .concept { fill: #f3e5f5; stroke: #6a1b9a; stroke-width: 3; stroke-dasharray: 3 5; }
      .legend-box { rx: 8; ry: 8; }
    </style>
  </defs>

  <rect x="0" y="0" width="1280" height="720" fill="#ffffff"/>
  <text x="40" y="42" class="title">Поток анализа заявки в Reqcore и bi-encoder сервисе</text>
  <text x="40" y="68" class="box-text">Единые пометки показывают, где находится проектная схема, а где фактически реализованная и экспериментально проверенная часть работы.</text>

  <rect x="50" y="105" width="170" height="100" rx="14" class="implemented"/>
  <text x="70" y="128" class="box-title">Интерфейс Reqcore</text>
  <text x="70" y="146" class="box-text">(Reqcore UI)</text>
  <text x="70" y="164" class="box-text">Запрос анализа</text>
  <text x="70" y="186" class="tag">Реализовано в работе</text>

  <rect x="285" y="105" width="250" height="100" rx="14" class="implemented"/>
  <text x="305" y="128" class="box-title">Точка анализа заявки</text>
  <text x="305" y="146" class="box-text">(/api/.../analyze)</text>
  <text x="305" y="164" class="box-text">Выбор ветки скоринга</text>
  <text x="305" y="186" class="tag">Реализовано в работе</text>

  <polygon points="645,100 735,151 645,202 555,151" class="approach"/>
  <text x="548" y="132" class="box-title">Провайдер (provider)</text>
  <text x="558" y="152" class="box-text">= biencoder?</text>
  <text x="555" y="184" class="tag">Архитектурный подход</text>

  <line x1="220" y1="151" x2="285" y2="151" class="arrow"/>
  <line x1="515" y1="151" x2="555" y2="151" class="arrow"/>

  <text x="750" y="115" class="box-text">да</text>
  <rect x="805" y="85" width="220" height="96" rx="14" class="implemented"/>
  <text x="820" y="108" class="box-title">URL сервиса (BIENCODER_URL)</text>
  <text x="820" y="126" class="box-text">+ маршрут (/score)</text>
  <text x="820" y="144" class="box-text">HTTP-вызов Python API</text>
  <text x="825" y="156" class="tag">Реализовано в работе</text>
  <line x1="725" y1="130" x2="805" y2="130" class="arrow"/>

  <rect x="1060" y="85" width="185" height="88" rx="14" class="implemented"/>
  <text x="1080" y="112" class="box-title">Сервис FastAPI</text>
  <text x="1080" y="134" class="box-text">(11_api_server.py)</text>
  <text x="1080" y="156" class="tag">Реализовано в работе</text>
  <line x1="1005" y1="130" x2="1060" y2="130" class="arrow"/>

  <rect x="800" y="235" width="210" height="96" rx="14" class="experimental"/>
  <text x="820" y="258" class="box-title">Ранжировщик (ATSRanker)</text>
  <text x="820" y="278" class="box-text">косинусное сходство,</text>
  <text x="820" y="294" class="box-text">top-k</text>
  <text x="820" y="307" class="tag">Экспериментально исследовано</text>
  <line x1="1152" y1="173" x2="1010" y2="260" class="arrow"/>

  <rect x="1060" y="235" width="185" height="96" rx="14" class="implemented"/>
  <text x="1065" y="258" class="box-title">Оценка заявки</text>
  <text x="1065" y="274" class="box-text">(application.score)</text>
  <text x="1065" y="290" class="box-text">аудит (analysis_run)</text>
  <text x="1080" y="307" class="tag">Реализовано в работе</text>
  <line x1="1010" y1="283" x2="1060" y2="283" class="arrow"/>

  <text x="520" y="272" class="box-text">нет</text>
  <rect x="300" y="245" width="210" height="92" rx="14" class="implemented"/>
  <text x="320" y="266" class="box-title">Скоринг заявки</text>
  <text x="320" y="282" class="box-text">(scoreApplication())</text>
  <text x="320" y="294" class="box-text">Критериальный LLM scoring</text>
  <text x="320" y="316" class="tag">Реализовано в работе</text>
  <line x1="585" y1="185" x2="510" y2="260" class="arrow"/>

  <rect x="50" y="245" width="190" height="92" rx="14" class="implemented"/>
  <text x="70" y="272" class="box-title">Провайдер LLM</text>
  <text x="70" y="294" class="box-text">OpenAI / Anthropic / Google</text>
  <text x="70" y="316" class="tag">Реализовано в работе</text>
  <line x1="300" y1="291" x2="240" y2="291" class="arrow"/>

  <rect x="300" y="400" width="250" height="100" rx="14" class="implemented"/>
  <text x="320" y="420" class="box-title">Оценки по критериям</text>
  <text x="320" y="436" class="box-text">(criterion_score) и заявки</text>
  <text x="320" y="452" class="box-text">(application.score)</text>
  <text x="320" y="449" class="box-text">Запись результата LLM-ветки</text>
  <text x="320" y="471" class="tag">Реализовано в работе</text>
  <line x1="145" y1="337" x2="300" y2="430" class="arrow"/>

  <rect x="800" y="400" width="260" height="92" rx="14" class="concept"/>
  <text x="820" y="427" class="box-title">Ветка «только score» (bi-encoder)</text>
  <text x="820" y="449" class="box-text">Не заменяет объяснимость по критериям</text>
  <text x="820" y="471" class="tag">Концептуальный компонент</text>
  <line x1="1152" y1="331" x2="1060" y2="422" class="arrow"/>

  <rect x="50" y="560" width="1180" height="115" rx="16" fill="#fafafa" stroke="#cfd8dc" stroke-width="2"/>
  <text x="70" y="588" class="box-title">Легенда единой системы обозначений</text>
  <rect x="70" y="608" width="22" height="22" class="assumption legend-box"/><text x="100" y="625" class="box-text">Архитектурное допущение</text>
  <rect x="285" y="608" width="22" height="22" class="approach legend-box"/><text x="315" y="625" class="box-text">Архитектурный подход</text>
  <rect x="500" y="608" width="22" height="22" class="concept legend-box"/><text x="530" y="625" class="box-text">Концептуальный компонент</text>
  <rect x="740" y="608" width="22" height="22" class="studied legend-box"/><text x="770" y="625" class="box-text">Исследовано в работе</text>
  <rect x="950" y="608" width="22" height="22" class="implemented legend-box"/><text x="980" y="625" class="box-text">Реализовано в работе</text>
  <rect x="70" y="642" width="22" height="22" class="experimental legend-box"/><text x="100" y="659" class="box-text">Экспериментально исследовано</text>
</svg>
