<?xml version="1.0" encoding="UTF-8" standalone="no"?>
<!DOCTYPE svg PUBLIC "-//W3C//DTD SVG 1.1//EN"
 "http://www.w3.org/Graphics/SVG/1.1/DTD/svg11.dtd">
<!-- Generated by graphviz version 15.0.0 (20260523.1842)
 -->
<!-- Title: ApplicationAnalysisRequestFlow Pages: 1 -->
<svg width="2193pt" height="2246pt"
 viewBox="0.00 0.00 2193.00 2246.00" xmlns="http://www.w3.org/2000/svg" xmlns:xlink="http://www.w3.org/1999/xlink">
  <title id="title">Схема потока анализа заявки с пометками статуса компонентов</title>
  <desc id="desc">Потоковая диаграмма Reqcore и bi-encoder сервиса. Статус элементов кодируется цветом рамки по легенде SAT (см. подпись к рисунку).</desc>

<g id="graph0" class="graph" transform="scale(1.33333 1.33333) rotate(0) translate(36 1648.44)">

<polygon fill="#ffffff" stroke="none" points="-36,36 -36,-1648.44 1609,-1648.44 1609,36 -36,36"/>
<text xml:space="preserve" text-anchor="start" x="14" y="-1586.34" font-family="Arial" font-weight="bold" font-size="18.00">Поток анализа заявки в Reqcore и bi&#45;encoder сервисе</text>
<text xml:space="preserve" text-anchor="start" x="14" y="-1562.94" font-family="Arial" font-size="11.00">Нотация SAT: статус элемента задаётся цветом рамки (см. легенду), а не отдельной строкой внутри блока.</text>
<text xml:space="preserve" text-anchor="start" x="14" y="-1542.19" font-family="Arial" font-size="10.00" fill="#546e7a">Базовая нотация — потоковая схема (flowchart); надстройка SAT — авторская шкала достоверности утверждений о компонентах.</text>
<g id="clust1" class="cluster">
<title>cluster_flow</title>
</g>
<g id="clust2" class="cluster">
<title>cluster_spine</title>
</g>
<g id="clust4" class="cluster">
<title>cluster_biencoder</title>
<path fill="#fafcfd" stroke="#b0bec5" d="M338,-512.8C338,-512.8 546,-512.8 546,-512.8 552,-512.8 558,-518.8 558,-524.8 558,-524.8 558,-1249.33 558,-1249.33 558,-1255.33 552,-1261.33 546,-1261.33 546,-1261.33 338,-1261.33 338,-1261.33 332,-1261.33 326,-1255.33 326,-1249.33 326,-1249.33 326,-524.8 326,-524.8 326,-518.8 332,-512.8 338,-512.8"/>
<text xml:space="preserve" text-anchor="middle" x="379.75" y="-1245.93" font-family="Arial" font-size="12.00">Ветка bi&#45;encoder</text>
</g>
<g id="clust5" class="cluster">
<title>cluster_llm</title>
<path fill="#fafcfd" stroke="#b0bec5" d="M586,-778.38C586,-778.38 796,-778.38 796,-778.38 802,-778.38 808,-784.38 808,-790.38 808,-790.38 808,-1249.33 808,-1249.33 808,-1255.33 802,-1261.33 796,-1261.33 796,-1261.33 586,-1261.33 586,-1261.33 580,-1261.33 574,-1255.33 574,-1249.33 574,-1249.33 574,-790.38 574,-790.38 574,-784.38 580,-778.38 586,-778.38"/>
<text xml:space="preserve" text-anchor="middle" x="631.88" y="-1245.93" font-family="Arial" font-size="12.00">Ветка LLM scoring</text>
</g>

<!-- ui -->
<g id="node1" class="node">
<title>ui</title>
<path fill="#e8f5e9" stroke="#2e7d32" stroke-width="2.5" d="M181.88,-1463.03C181.88,-1463.03 52.12,-1463.03 52.12,-1463.03 46.12,-1463.03 40.12,-1457.03 40.12,-1451.03 40.12,-1451.03 40.12,-1411.49 40.12,-1411.49 40.12,-1405.49 46.12,-1399.49 52.12,-1399.49 52.12,-1399.49 181.88,-1399.49 181.88,-1399.49 187.88,-1399.49 193.88,-1405.49 193.88,-1411.49 193.88,-1411.49 193.88,-1451.03 193.88,-1451.03 193.88,-1457.03 187.88,-1463.03 181.88,-1463.03"/>
<text xml:space="preserve" text-anchor="middle" x="117" y="-1441.06" font-family="Arial" font-size="11.00">Интерфейс Reqcore</text>
<text xml:space="preserve" text-anchor="middle" x="117" y="-1427.56" font-family="Arial" font-size="11.00">(Reqcore UI)</text>
<text xml:space="preserve" text-anchor="middle" x="117" y="-1414.06" font-family="Arial" font-size="11.00">Запрос анализа заявки</text>
</g>
<!-- analyze -->
<g id="node2" class="node">
<title>analyze</title>
<path fill="#e8f5e9" stroke="#2e7d32" stroke-width="2.5" d="M427,-1463.03C427,-1463.03 277,-1463.03 277,-1463.03 271,-1463.03 265,-1457.03 265,-1451.03 265,-1451.03 265,-1411.49 265,-1411.49 265,-1405.49 271,-1399.49 277,-1399.49 277,-1399.49 427,-1399.49 427,-1399.49 433,-1399.49 439,-1405.49 439,-1411.49 439,-1411.49 439,-1451.03 439,-1451.03 439,-1457.03 433,-1463.03 427,-1463.03"/>
<text xml:space="preserve" text-anchor="middle" x="352" y="-1441.06" font-family="Arial" font-size="11.00">Точка анализа заявки</text>
<text xml:space="preserve" text-anchor="middle" x="352" y="-1427.56" font-family="Arial" font-size="11.00">(/api/applications/:id/analyze)</text>
<text xml:space="preserve" text-anchor="middle" x="352" y="-1414.06" font-family="Arial" font-size="11.00">Выбор ветки скоринга</text>
</g>
<!-- ui&#45;&gt;analyze -->
<g id="edge1" class="edge">
<title>ui&#45;&gt;analyze</title>
<path fill="none" stroke="#263238" stroke-width="2.2" d="M194.93,-1431C194.93,-1431 252.31,-1431 252.31,-1431"/>
<polygon fill="#263238" stroke="#263238" stroke-width="2.2" points="252.31,-1433.98 260.81,-1431 252.31,-1428.03 252.31,-1433.98"/>
</g>
<!-- provider -->
<g id="node3" class="node">
<title>provider</title>
<path fill="#e3f2fd" stroke="#1565c0" stroke-width="2.5" d="M651.8,-1485.64C651.8,-1485.64 521.38,-1435.56 521.38,-1435.56 515.78,-1433.41 515.78,-1429.11 521.38,-1426.96 521.38,-1426.96 651.8,-1376.88 651.8,-1376.88 657.4,-1374.73 668.6,-1374.73 674.2,-1376.88 674.2,-1376.88 804.62,-1426.96 804.62,-1426.96 810.22,-1429.11 810.22,-1433.41 804.62,-1435.56 804.62,-1435.56 674.2,-1485.64 674.2,-1485.64 668.6,-1487.79 657.4,-1487.79 651.8,-1485.64"/>
<text xml:space="preserve" text-anchor="middle" x="663" y="-1434.31" font-family="Arial" font-size="11.00">Провайдер</text>
<text xml:space="preserve" text-anchor="middle" x="663" y="-1420.81" font-family="Arial" font-size="11.00">(provider = biencoder?)</text>
</g>
<!-- analyze&#45;&gt;provider -->
<g id="edge2" class="edge">
<title>analyze&#45;&gt;provider</title>
<path fill="none" stroke="#263238" stroke-width="2.2" d="M439.87,-1431C439.87,-1431 495.79,-1431 495.79,-1431"/>
<polygon fill="#263238" stroke="#263238" stroke-width="2.2" points="495.79,-1433.98 504.29,-1431 495.79,-1428.03 495.79,-1433.98"/>
</g>
<!-- bi_gate -->
<g id="node4" class="node">
<title>bi_gate</title>
<ellipse fill="#fafcfd" stroke="#b0bec5" stroke-width="2.5" cx="506" cy="-1206.04" rx="5.04" ry="5.04"/>
</g>
<!-- provider&#45;&gt;bi_gate -->
<g id="edge11" class="edge">
<title>provider&#45;&gt;bi_gate</title>
<path fill="none" stroke="#263238" stroke-width="2.2" d="M520.14,-1426.13C520.14,-1405.9 520.14,-1329.91 520.14,-1272.83"/>
<polygon fill="#263238" stroke="#263238" stroke-width="2.2" points="523.12,-1273.16 520.15,-1264.66 517.17,-1273.16 523.12,-1273.16"/>
<text xml:space="preserve" text-anchor="middle" x="549.75" y="-1302.18" font-family="Arial" font-size="12.00" fill="#37474f">да</text>
</g>
<!-- llm_gate -->
<g id="node10" class="node">
<title>llm_gate</title>
<ellipse fill="#fafcfd" stroke="#b0bec5" stroke-width="2.5" cx="678" cy="-1206.04" rx="5.04" ry="5.04"/>
</g>
<!-- provider&#45;&gt;llm_gate -->
<g id="edge12" class="edge">
<title>provider&#45;&gt;llm_gate</title>
<path fill="none" stroke="#263238" stroke-width="2.2" d="M678,-1377.03C678,-1377.03 678,-1317.71 678,-1272.93"/>
<polygon fill="#263238" stroke="#263238" stroke-width="2.2" points="680.98,-1273.16 678,-1264.66 675.03,-1273.16 680.98,-1273.16"/>
<text xml:space="preserve" text-anchor="middle" x="675" y="-1302.18" font-family="Arial" font-size="12.00" fill="#37474f">нет</text>
</g>
<!-- bicall -->
<g id="node5" class="node">
<title>bicall</title>
<path fill="#e8f5e9" stroke="#2e7d32" stroke-width="2.5" d="M517.25,-1142C517.25,-1142 374.75,-1142 374.75,-1142 368.75,-1142 362.75,-1136 362.75,-1130 362.75,-1130 362.75,-1076.96 362.75,-1076.96 362.75,-1070.96 368.75,-1064.96 374.75,-1064.96 374.75,-1064.96 517.25,-1064.96 517.25,-1064.96 523.25,-1064.96 529.25,-1070.96 529.25,-1076.96 529.25,-1076.96 529.25,-1130 529.25,-1130 529.25,-1136 523.25,-1142 517.25,-1142"/>
<text xml:space="preserve" text-anchor="middle" x="446" y="-1120.03" font-family="Arial" font-size="11.00">Вызов bi&#45;encoder сервиса</text>
<text xml:space="preserve" text-anchor="middle" x="446" y="-1106.53" font-family="Arial" font-size="11.00">URL (BIENCODER_URL)</text>
<text xml:space="preserve" text-anchor="middle" x="446" y="-1093.03" font-family="Arial" font-size="11.00">маршрут (/score)</text>
<text xml:space="preserve" text-anchor="middle" x="446" y="-1079.53" font-family="Arial" font-size="11.00">HTTP POST, Python API</text>
</g>
<!-- bi_gate&#45;&gt;bicall -->
<g id="edge3" class="edge">
<title>bi_gate&#45;&gt;bicall</title>
<path fill="none" stroke="#263238" stroke-width="2.2" d="M506,-1199.93C506,-1199.93 506,-1154.76 506,-1154.76"/>
<polygon fill="#263238" stroke="#263238" stroke-width="2.2" points="508.98,-1154.76 506,-1146.26 503.03,-1154.76 508.98,-1154.76"/>
</g>
<!-- fastapi -->
<g id="node6" class="node">
<title>fastapi</title>
<path fill="#e8f5e9" stroke="#2e7d32" stroke-width="2.5" d="M511.5,-1005.96C511.5,-1005.96 376.5,-1005.96 376.5,-1005.96 370.5,-1005.96 364.5,-999.96 364.5,-993.96 364.5,-993.96 364.5,-954.42 364.5,-954.42 364.5,-948.42 370.5,-942.42 376.5,-942.42 376.5,-942.42 511.5,-942.42 511.5,-942.42 517.5,-942.42 523.5,-948.42 523.5,-954.42 523.5,-954.42 523.5,-993.96 523.5,-993.96 523.5,-999.96 517.5,-1005.96 511.5,-1005.96"/>
<text xml:space="preserve" text-anchor="middle" x="444" y="-983.99" font-family="Arial" font-size="11.00">Сервис FastAPI</text>
<text xml:space="preserve" text-anchor="middle" x="444" y="-970.49" font-family="Arial" font-size="11.00">(11_api_server.py)</text>
<text xml:space="preserve" text-anchor="middle" x="444" y="-956.99" font-family="Arial" font-size="11.00">Загрузка ранжировщика</text>
</g>
<!-- bicall&#45;&gt;fastapi -->
<g id="edge4" class="edge">
<title>bicall&#45;&gt;fastapi</title>
<path fill="none" stroke="#263238" stroke-width="2.2" d="M444,-1063.99C444,-1063.99 444,-1018.75 444,-1018.75"/>
<polygon fill="#263238" stroke="#263238" stroke-width="2.2" points="446.98,-1018.75 444,-1010.25 441.03,-1018.75 446.98,-1018.75"/>
</g>
<!-- ranker -->
<g id="node7" class="node">
<title>ranker</title>
<path fill="#e0f2f1" stroke="#00695c" stroke-width="2.5" d="M516.62,-876.67C516.62,-876.67 367.38,-876.67 367.38,-876.67 361.38,-876.67 355.38,-870.67 355.38,-864.67 355.38,-864.67 355.38,-825.13 355.38,-825.13 355.38,-819.13 361.38,-813.13 367.38,-813.13 367.38,-813.13 516.62,-813.13 516.62,-813.13 522.62,-813.13 528.62,-819.13 528.62,-825.13 528.62,-825.13 528.62,-864.67 528.62,-864.67 528.62,-870.67 522.62,-876.67 516.62,-876.67"/>
<text xml:space="preserve" text-anchor="middle" x="442" y="-854.7" font-family="Arial" font-size="11.00">Ранжировщик</text>
<text xml:space="preserve" text-anchor="middle" x="442" y="-841.2" font-family="Arial" font-size="11.00">(ATSRanker)</text>
<text xml:space="preserve" text-anchor="middle" x="442" y="-827.7" font-family="Arial" font-size="11.00">Косинусное сходство, top&#45;k</text>
</g>
<!-- fastapi&#45;&gt;ranker -->
<g id="edge5" class="edge">
<title>fastapi&#45;&gt;ranker</title>
<path fill="none" stroke="#263238" stroke-width="2.2" d="M444,-941.23C444,-941.23 444,-889.63 444,-889.63"/>
<polygon fill="#263238" stroke="#263238" stroke-width="2.2" points="446.98,-889.63 444,-881.13 441.03,-889.63 446.98,-889.63"/>
</g>
<!-- appscore -->
<g id="node8" class="node">
<title>appscore</title>
<path fill="#e8f5e9" stroke="#2e7d32" stroke-width="2.5" d="M497.88,-740.38C497.88,-740.38 386.12,-740.38 386.12,-740.38 380.12,-740.38 374.12,-734.38 374.12,-728.38 374.12,-728.38 374.12,-688.84 374.12,-688.84 374.12,-682.84 380.12,-676.84 386.12,-676.84 386.12,-676.84 497.88,-676.84 497.88,-676.84 503.88,-676.84 509.88,-682.84 509.88,-688.84 509.88,-688.84 509.88,-728.38 509.88,-728.38 509.88,-734.38 503.88,-740.38 497.88,-740.38"/>
<text xml:space="preserve" text-anchor="middle" x="442" y="-718.41" font-family="Arial" font-size="11.00">Оценка заявки</text>
<text xml:space="preserve" text-anchor="middle" x="442" y="-704.91" font-family="Arial" font-size="11.00">(application.score)</text>
<text xml:space="preserve" text-anchor="middle" x="442" y="-691.41" font-family="Arial" font-size="11.00">аудит (analysis_run)</text>
</g>
<!-- ranker&#45;&gt;appscore -->
<g id="edge6" class="edge">
<title>ranker&#45;&gt;appscore</title>
<path fill="none" stroke="#263238" stroke-width="2.2" d="M442,-811.91C442,-811.91 442,-753.13 442,-753.13"/>
<polygon fill="#263238" stroke="#263238" stroke-width="2.2" points="444.98,-753.13 442,-744.63 439.03,-753.13 444.98,-753.13"/>
</g>
<!-- onlyscore -->
<g id="node9" class="node">
<title>onlyscore</title>
<path fill="#f3e5f5" stroke="#6a1b9a" stroke-width="2.5" stroke-dasharray="5,2" d="M518.12,-617.84C518.12,-617.84 365.88,-617.84 365.88,-617.84 359.88,-617.84 353.88,-611.84 353.88,-605.84 353.88,-605.84 353.88,-552.8 353.88,-552.8 353.88,-546.8 359.88,-540.8 365.88,-540.8 365.88,-540.8 518.12,-540.8 518.12,-540.8 524.12,-540.8 530.12,-546.8 530.12,-552.8 530.12,-552.8 530.12,-605.84 530.12,-605.84 530.12,-611.84 524.12,-617.84 518.12,-617.84"/>
<text xml:space="preserve" text-anchor="middle" x="442" y="-595.87" font-family="Arial" font-size="11.00">Ветка «только score»</text>
<text xml:space="preserve" text-anchor="middle" x="442" y="-582.37" font-family="Arial" font-size="11.00">(bi&#45;encoder)</text>
<text xml:space="preserve" text-anchor="middle" x="442" y="-568.87" font-family="Arial" font-size="11.00">Не заменяет объяснимость</text>
<text xml:space="preserve" text-anchor="middle" x="442" y="-555.37" font-family="Arial" font-size="11.00">по критериям</text>
</g>
<!-- appscore&#45;&gt;onlyscore -->
<g id="edge7" class="edge">
<title>appscore&#45;&gt;onlyscore</title>
<path fill="none" stroke="#263238" stroke-width="2.2" d="M442,-675.65C442,-675.65 442,-630.5 442,-630.5"/>
<polygon fill="#263238" stroke="#263238" stroke-width="2.2" points="444.98,-630.5 442,-622 439.03,-630.5 444.98,-630.5"/>
</g>
<!-- flow_anchor -->
<!-- onlyscore&#45;&gt;flow_anchor -->
<!-- llmprov -->
<g id="node11" class="node">
<title>llmprov</title>
<path fill="#e8f5e9" stroke="#2e7d32" stroke-width="2.5" d="M762.12,-1128.5C762.12,-1128.5 615.88,-1128.5 615.88,-1128.5 609.88,-1128.5 603.88,-1122.5 603.88,-1116.5 603.88,-1116.5 603.88,-1090.46 603.88,-1090.46 603.88,-1084.46 609.88,-1078.46 615.88,-1078.46 615.88,-1078.46 762.12,-1078.46 762.12,-1078.46 768.12,-1078.46 774.12,-1084.46 774.12,-1090.46 774.12,-1090.46 774.12,-1116.5 774.12,-1116.5 774.12,-1122.5 768.12,-1128.5 762.12,-1128.5"/>
<text xml:space="preserve" text-anchor="middle" x="689" y="-1106.53" font-family="Arial" font-size="11.00">Провайдер LLM</text>
<text xml:space="preserve" text-anchor="middle" x="689" y="-1093.03" font-family="Arial" font-size="11.00">OpenAI / Anthropic / Google</text>
</g>
<!-- llm_gate&#45;&gt;llmprov -->
<g id="edge8" class="edge">
<title>llm_gate&#45;&gt;llmprov</title>
<path fill="none" stroke="#263238" stroke-width="2.2" d="M678,-1199.93C678,-1199.93 678,-1141.35 678,-1141.35"/>
<polygon fill="#263238" stroke="#263238" stroke-width="2.2" points="680.98,-1141.35 678,-1132.85 675.03,-1141.35 680.98,-1141.35"/>
</g>
<!-- scoring -->
<g id="node12" class="node">
<title>scoring</title>
<path fill="#e8f5e9" stroke="#2e7d32" stroke-width="2.5" d="M768.25,-1005.96C768.25,-1005.96 613.75,-1005.96 613.75,-1005.96 607.75,-1005.96 601.75,-999.96 601.75,-993.96 601.75,-993.96 601.75,-954.42 601.75,-954.42 601.75,-948.42 607.75,-942.42 613.75,-942.42 613.75,-942.42 768.25,-942.42 768.25,-942.42 774.25,-942.42 780.25,-948.42 780.25,-954.42 780.25,-954.42 780.25,-993.96 780.25,-993.96 780.25,-999.96 774.25,-1005.96 768.25,-1005.96"/>
<text xml:space="preserve" text-anchor="middle" x="691" y="-983.99" font-family="Arial" font-size="11.00">Скоринг заявки</text>
<text xml:space="preserve" text-anchor="middle" x="691" y="-970.49" font-family="Arial" font-size="11.00">(scoreApplication())</text>
<text xml:space="preserve" text-anchor="middle" x="691" y="-956.99" font-family="Arial" font-size="11.00">Критериальный LLM scoring</text>
</g>
<!-- llmprov&#45;&gt;scoring -->
<g id="edge9" class="edge">
<title>llmprov&#45;&gt;scoring</title>
<path fill="none" stroke="#263238" stroke-width="2.2" d="M689,-1077.32C689,-1077.32 689,-1018.57 689,-1018.57"/>
<polygon fill="#263238" stroke="#263238" stroke-width="2.2" points="691.98,-1018.57 689,-1010.07 686.03,-1018.57 691.98,-1018.57"/>
</g>
<!-- llmwrite -->
<g id="node13" class="node">
<title>llmwrite</title>
<path fill="#e8f5e9" stroke="#2e7d32" stroke-width="2.5" d="M767.5,-883.42C767.5,-883.42 614.5,-883.42 614.5,-883.42 608.5,-883.42 602.5,-877.42 602.5,-871.42 602.5,-871.42 602.5,-818.38 602.5,-818.38 602.5,-812.38 608.5,-806.38 614.5,-806.38 614.5,-806.38 767.5,-806.38 767.5,-806.38 773.5,-806.38 779.5,-812.38 779.5,-818.38 779.5,-818.38 779.5,-871.42 779.5,-871.42 779.5,-877.42 773.5,-883.42 767.5,-883.42"/>
<text xml:space="preserve" text-anchor="middle" x="691" y="-861.45" font-family="Arial" font-size="11.00">Запись LLM&#45;результата</text>
<text xml:space="preserve" text-anchor="middle" x="691" y="-847.95" font-family="Arial" font-size="11.00">(criterion_score)</text>
<text xml:space="preserve" text-anchor="middle" x="691" y="-834.45" font-family="Arial" font-size="11.00">(application.score)</text>
<text xml:space="preserve" text-anchor="middle" x="691" y="-820.95" font-family="Arial" font-size="11.00">Итог по критериям и заявке</text>
</g>
<!-- scoring&#45;&gt;llmwrite -->
<g id="edge10" class="edge">
<title>scoring&#45;&gt;llmwrite</title>
<path fill="none" stroke="#263238" stroke-width="2.2" d="M691,-941.23C691,-941.23 691,-896.08 691,-896.08"/>
<polygon fill="#263238" stroke="#263238" stroke-width="2.2" points="693.98,-896.08 691,-887.58 688.03,-896.08 693.98,-896.08"/>
</g>
<!-- llmwrite&#45;&gt;flow_anchor -->
<!-- leg_assumption -->
<g id="node15" class="node">
<title>leg_assumption</title>
<path fill="#fff8e1" stroke="#f57f17" stroke-width="2.5" stroke-dasharray="5,2" d="M651.25,-232.58C651.25,-232.58 232.75,-232.58 232.75,-232.58 226.75,-232.58 220.75,-226.58 220.75,-220.58 220.75,-220.58 220.75,-208.04 220.75,-208.04 220.75,-202.04 226.75,-196.04 232.75,-196.04 232.75,-196.04 651.25,-196.04 651.25,-196.04 657.25,-196.04 663.25,-202.04 663.25,-208.04 663.25,-208.04 663.25,-220.58 663.25,-220.58 663.25,-226.58 657.25,-232.58 651.25,-232.58"/>
<text xml:space="preserve" text-anchor="middle" x="442" y="-210.61" font-family="Arial" font-size="11.00">Архитектурное допущение — проектное предположение без проверки в работе</text>
</g>
<!-- flow_anchor&#45;&gt;leg_assumption -->
<!-- leg_studied -->
<g id="node18" class="node">
<title>leg_studied</title>
<path fill="#f1f8e9" stroke="#558b2f" stroke-width="2.5" d="M659.25,-137.04C659.25,-137.04 288.75,-137.04 288.75,-137.04 282.75,-137.04 276.75,-131.04 276.75,-125.04 276.75,-125.04 276.75,-112.5 276.75,-112.5 276.75,-106.5 282.75,-100.5 288.75,-100.5 288.75,-100.5 659.25,-100.5 659.25,-100.5 665.25,-100.5 671.25,-106.5 671.25,-112.5 671.25,-112.5 671.25,-125.04 671.25,-125.04 671.25,-131.04 665.25,-137.04 659.25,-137.04"/>
<text xml:space="preserve" text-anchor="middle" x="474" y="-115.07" font-family="Arial" font-size="11.00">Исследовано — подготовка данных и артефакты, изученные автором</text>
</g>
<!-- leg_assumption&#45;&gt;leg_studied -->
<!-- leg_approach -->
<g id="node16" class="node">
<title>leg_approach</title>
<path fill="#e3f2fd" stroke="#1565c0" stroke-width="2.5" d="M1062.88,-232.58C1062.88,-232.58 711.12,-232.58 711.12,-232.58 705.12,-232.58 699.12,-226.58 699.12,-220.58 699.12,-220.58 699.12,-208.04 699.12,-208.04 699.12,-202.04 705.12,-196.04 711.12,-196.04 711.12,-196.04 1062.88,-196.04 1062.88,-196.04 1068.88,-196.04 1074.88,-202.04 1074.88,-208.04 1074.88,-208.04 1074.88,-220.58 1074.88,-220.58 1074.88,-226.58 1068.88,-232.58 1062.88,-232.58"/>
<text xml:space="preserve" text-anchor="middle" x="887" y="-210.61" font-family="Arial" font-size="11.00">Архитектурный подход — выбранная проектная схема интеграции</text>
</g>
<!-- leg_implemented -->
<g id="node19" class="node">
<title>leg_implemented</title>
<path fill="#e8f5e9" stroke="#2e7d32" stroke-width="2.5" d="M1013.75,-137.04C1013.75,-137.04 760.25,-137.04 760.25,-137.04 754.25,-137.04 748.25,-131.04 748.25,-125.04 748.25,-125.04 748.25,-112.5 748.25,-112.5 748.25,-106.5 754.25,-100.5 760.25,-100.5 760.25,-100.5 1013.75,-100.5 1013.75,-100.5 1019.75,-100.5 1025.75,-106.5 1025.75,-112.5 1025.75,-112.5 1025.75,-125.04 1025.75,-125.04 1025.75,-131.04 1019.75,-137.04 1013.75,-137.04"/>
<text xml:space="preserve" text-anchor="middle" x="887" y="-115.07" font-family="Arial" font-size="11.00">Реализовано — присутствует в коде прототипа</text>
</g>
<!-- leg_approach&#45;&gt;leg_implemented -->
<!-- leg_concept -->
<g id="node17" class="node">
<title>leg_concept</title>
<path fill="#f3e5f5" stroke="#6a1b9a" stroke-width="2.5" stroke-dasharray="5,2" d="M1532.75,-232.58C1532.75,-232.58 1123.25,-232.58 1123.25,-232.58 1117.25,-232.58 1111.25,-226.58 1111.25,-220.58 1111.25,-220.58 1111.25,-208.04 1111.25,-208.04 1111.25,-202.04 1117.25,-196.04 1123.25,-196.04 1123.25,-196.04 1532.75,-196.04 1532.75,-196.04 1538.75,-196.04 1544.75,-202.04 1544.75,-208.04 1544.75,-208.04 1544.75,-220.58 1544.75,-220.58 1544.75,-226.58 1538.75,-232.58 1532.75,-232.58"/>
<text xml:space="preserve" text-anchor="middle" x="1328" y="-210.61" font-family="Arial" font-size="11.00">Концептуальный компонент — требование/рамка без эмпирической проверки</text>
</g>
<!-- leg_experimental -->
<g id="node20" class="node">
<title>leg_experimental</title>
<path fill="#e0f2f1" stroke="#00695c" stroke-width="2.5" d="M1493.38,-137.04C1493.38,-137.04 1162.62,-137.04 1162.62,-137.04 1156.62,-137.04 1150.62,-131.04 1150.62,-125.04 1150.62,-125.04 1150.62,-112.5 1150.62,-112.5 1150.62,-106.5 1156.62,-100.5 1162.62,-100.5 1162.62,-100.5 1493.38,-100.5 1493.38,-100.5 1499.38,-100.5 1505.38,-106.5 1505.38,-112.5 1505.38,-112.5 1505.38,-125.04 1505.38,-125.04 1505.38,-131.04 1499.38,-137.04 1493.38,-137.04"/>
<text xml:space="preserve" text-anchor="middle" x="1328" y="-115.07" font-family="Arial" font-size="11.00">Экспериментально проверено — измерено на val/test или E2E</text>
</g>
<!-- leg_concept&#45;&gt;leg_experimental -->
<!-- leg_note -->
<g id="node21" class="node">
<title>leg_note</title>
<path fill="lightgrey" stroke="none" stroke-width="2.5" d="M762.88,-41.5C762.88,-41.5 225.12,-41.5 225.12,-41.5 222.88,-41.5 220.62,-39.25 220.62,-37 220.62,-37 220.62,-32.5 220.62,-32.5 220.62,-30.25 222.88,-28 225.12,-28 225.12,-28 762.88,-28 762.88,-28 765.12,-28 767.38,-30.25 767.38,-32.5 767.38,-32.5 767.38,-37 767.38,-37 767.38,-39.25 765.12,-41.5 762.88,-41.5"/>
<text xml:space="preserve" text-anchor="start" x="220.62" y="-32.05" font-family="Arial" font-size="11.00"> &#160;&#160;&#160;&#160;&#160;</text>
<text xml:space="preserve" text-anchor="start" x="238.62" y="-32.05" font-family="Arial" font-size="10.00" fill="#546e7a">Зелёная рамка = реализовано; бирюзовая = эксперимент; синяя заливка у ромба = архитектурный выбор ветки.</text>
<text xml:space="preserve" text-anchor="start" x="755.38" y="-32.05" font-family="Arial" font-size="11.00"> &#160;&#160;&#160;</text>
</g>
<!-- leg_studied&#45;&gt;leg_note -->
<g id="clust7" class="cluster">
<title>cluster_legend</title>
<path fill="#fafafa" stroke="#cfd8dc" d="M213,-8C213,-8 1553,-8 1553,-8 1559,-8 1565,-14 1565,-20 1565,-20 1565,-288.08 1565,-288.08 1565,-294.08 1559,-300.08 1553,-300.08 1553,-300.08 213,-300.08 213,-300.08 207,-300.08 201,-294.08 201,-288.08 201,-288.08 201,-20 201,-20 201,-14 207,-8 213,-8"/>
<text xml:space="preserve" text-anchor="start" x="213" y="-282.63" font-family="Arial" font-weight="bold" font-size="11.00">Легенда SAT (Status Assertion Taxonomy) — единая шкала для всех диаграмм работы</text>
<text xml:space="preserve" text-anchor="start" x="213" y="-262.83" font-family="Arial" font-size="10.00" fill="#546e7a">C4 Container и BPMN используют ту же цветовую схему; BPMN 2.0 описывает процесс, SAT — эпистемический статус элемента.</text>
</g></g>
</svg>
