<?xml version="1.0" encoding="UTF-8" standalone="no"?>
<!DOCTYPE svg PUBLIC "-//W3C//DTD SVG 1.1//EN"
 "http://www.w3.org/Graphics/SVG/1.1/DTD/svg11.dtd">
<!-- Generated by graphviz version 15.0.0 (20260523.1842)
 -->
<!-- Title: ApplicationAnalysisRequestFlow Pages: 1 -->
<svg width="960pt" height="371pt"
 viewBox="0.00 0.00 960.00 371.00" xmlns="http://www.w3.org/2000/svg" xmlns:xlink="http://www.w3.org/1999/xlink">
  <title id="title">Схема потока анализа заявки с пометками статуса компонентов</title>
  <desc id="desc">Потоковая диаграмма Reqcore и bi-encoder сервиса. Статус элементов кодируется цветом рамки по легенде SAT (см. подпись к рисунку).</desc>

<g id="graph0" class="graph" transform="scale(0.483969 0.483969) rotate(0) translate(28.8 738.42)">

<polygon fill="#ffffff" stroke="none" points="-28.8,28.8 -28.8,-738.42 1954.8,-738.42 1954.8,28.8 -28.8,28.8"/>
<text xml:space="preserve" text-anchor="start" x="14" y="-683.52" font-family="Arial" font-weight="bold" font-size="18.00">Поток анализа заявки в Reqcore и bi&#45;encoder сервисе</text>
<text xml:space="preserve" text-anchor="start" x="14" y="-660.12" font-family="Arial" font-size="11.00">Нотация SAT: статус элемента задаётся цветом рамки (см. легенду), а не отдельной строкой внутри блока.</text>
<text xml:space="preserve" text-anchor="start" x="14" y="-639.37" font-family="Arial" font-size="10.00" fill="#546e7a">Базовая нотация — потоковая схема (flowchart); надстройка SAT — авторская шкала достоверности утверждений о компонентах.</text>
<g id="clust2" class="cluster">
<title>cluster_biencoder</title>
<path fill="#fafcfd" stroke="#b0bec5" d="M20,-324.22C20,-324.22 1147,-324.22 1147,-324.22 1153,-324.22 1159,-330.22 1159,-336.22 1159,-336.22 1159,-455.51 1159,-455.51 1159,-461.51 1153,-467.51 1147,-467.51 1147,-467.51 20,-467.51 20,-467.51 14,-467.51 8,-461.51 8,-455.51 8,-455.51 8,-336.22 8,-336.22 8,-330.22 14,-324.22 20,-324.22"/>
<text xml:space="preserve" text-anchor="middle" x="61.75" y="-452.11" font-family="Arial" font-size="12.00">Ветка bi&#45;encoder</text>
</g>
<g id="clust4" class="cluster">
<title>cluster_llm</title>
<path fill="#fafcfd" stroke="#b0bec5" d="M1179,-324.22C1179,-324.22 1906,-324.22 1906,-324.22 1912,-324.22 1918,-330.22 1918,-336.22 1918,-336.22 1918,-455.51 1918,-455.51 1918,-461.51 1912,-467.51 1906,-467.51 1906,-467.51 1179,-467.51 1179,-467.51 1173,-467.51 1167,-461.51 1167,-455.51 1167,-455.51 1167,-336.22 1167,-336.22 1167,-330.22 1173,-324.22 1179,-324.22"/>
<text xml:space="preserve" text-anchor="middle" x="1224.88" y="-452.11" font-family="Arial" font-size="12.00">Ветка LLM scoring</text>
</g>
<!-- ui -->
<g id="node1" class="node">
<title>ui</title>
<path fill="#e8f5e9" stroke="#2e7d32" stroke-width="2.5" d="M444.88,-600.21C444.88,-600.21 315.12,-600.21 315.12,-600.21 309.12,-600.21 303.12,-594.21 303.12,-588.21 303.12,-588.21 303.12,-548.67 303.12,-548.67 303.12,-542.67 309.12,-536.67 315.12,-536.67 315.12,-536.67 444.88,-536.67 444.88,-536.67 450.88,-536.67 456.88,-542.67 456.88,-548.67 456.88,-548.67 456.88,-588.21 456.88,-588.21 456.88,-594.21 450.88,-600.21 444.88,-600.21"/>
<text xml:space="preserve" text-anchor="middle" x="380" y="-578.24" font-family="Arial" font-size="11.00">Интерфейс Reqcore</text>
<text xml:space="preserve" text-anchor="middle" x="380" y="-564.74" font-family="Arial" font-size="11.00">(Reqcore UI)</text>
<text xml:space="preserve" text-anchor="middle" x="380" y="-551.24" font-family="Arial" font-size="11.00">Запрос анализа заявки</text>
</g>
<!-- analyze -->
<g id="node2" class="node">
<title>analyze</title>
<path fill="#e8f5e9" stroke="#2e7d32" stroke-width="2.5" d="M676,-600.21C676,-600.21 526,-600.21 526,-600.21 520,-600.21 514,-594.21 514,-588.21 514,-588.21 514,-548.67 514,-548.67 514,-542.67 520,-536.67 526,-536.67 526,-536.67 676,-536.67 676,-536.67 682,-536.67 688,-542.67 688,-548.67 688,-548.67 688,-588.21 688,-588.21 688,-594.21 682,-600.21 676,-600.21"/>
<text xml:space="preserve" text-anchor="middle" x="601" y="-578.24" font-family="Arial" font-size="11.00">Точка анализа заявки</text>
<text xml:space="preserve" text-anchor="middle" x="601" y="-564.74" font-family="Arial" font-size="11.00">(/api/applications/:id/analyze)</text>
<text xml:space="preserve" text-anchor="middle" x="601" y="-551.24" font-family="Arial" font-size="11.00">Выбор ветки скоринга</text>
</g>
<!-- ui&#45;&gt;analyze -->
<g id="edge1" class="edge">
<title>ui&#45;&gt;analyze</title>
<path fill="none" stroke="#263238" stroke-width="2.2" d="M458.05,-568.44C466.5,-568.44 485.58,-568.44 501.58,-568.44"/>
<polygon fill="#263238" stroke="#263238" stroke-width="2.2" points="501.17,-571.42 509.67,-568.44 501.17,-565.47 501.17,-571.42"/>
</g>
<!-- provider -->
<g id="node3" class="node">
<title>provider</title>
<path fill="#e3f2fd" stroke="#1565c0" stroke-width="2.5" d="M886.8,-622.82C886.8,-622.82 756.38,-572.74 756.38,-572.74 750.78,-570.59 750.78,-566.29 756.38,-564.14 756.38,-564.14 886.8,-514.06 886.8,-514.06 892.4,-511.91 903.6,-511.91 909.2,-514.06 909.2,-514.06 1039.62,-564.14 1039.62,-564.14 1045.22,-566.29 1045.22,-570.59 1039.62,-572.74 1039.62,-572.74 909.2,-622.82 909.2,-622.82 903.6,-624.97 892.4,-624.97 886.8,-622.82"/>
<text xml:space="preserve" text-anchor="middle" x="898" y="-571.49" font-family="Arial" font-size="11.00">Провайдер</text>
<text xml:space="preserve" text-anchor="middle" x="898" y="-557.99" font-family="Arial" font-size="11.00">(provider = biencoder?)</text>
</g>
<!-- analyze&#45;&gt;provider -->
<g id="edge2" class="edge">
<title>analyze&#45;&gt;provider</title>
<path fill="none" stroke="#263238" stroke-width="2.2" d="M689.03,-568.44C695.76,-568.44 700,-568.44 700,-568.44 700,-568.44 713.33,-568.44 730.2,-568.44"/>
<polygon fill="#263238" stroke="#263238" stroke-width="2.2" points="729.87,-571.42 738.37,-568.44 729.87,-565.47 729.87,-571.42"/>
</g>
<!-- bi_gate -->
<g id="node4" class="node">
<title>bi_gate</title>
<ellipse fill="#fafcfd" stroke="#b0bec5" stroke-width="2.5" cx="34" cy="-384.74" rx="4.32" ry="4.32"/>
</g>
<!-- provider&#45;&gt;bi_gate -->
<g id="edge11" class="edge">
<title>provider&#45;&gt;bi_gate</title>
<path fill="none" stroke="#263238" stroke-width="2.2" d="M811.33,-541.8C759.25,-526.4 703,-509.76 703,-509.76 703,-509.76 177.75,-474.08 92.6,-468.3"/>
<polygon fill="#263238" stroke="#263238" stroke-width="2.2" points="93,-465.34 84.32,-467.74 92.6,-471.28 93,-465.34"/>
<text xml:space="preserve" text-anchor="middle" x="398.75" y="-478.36" font-family="Arial" font-size="12.00" fill="#37474f">да</text>
</g>
<!-- llm_gate -->
<g id="node10" class="node">
<title>llm_gate</title>
<ellipse fill="#fafcfd" stroke="#b0bec5" stroke-width="2.5" cx="1193" cy="-384.74" rx="4.32" ry="4.32"/>
</g>
<!-- provider&#45;&gt;llm_gate -->
<g id="edge12" class="edge">
<title>provider&#45;&gt;llm_gate</title>
<path fill="none" stroke="#263238" stroke-width="2.2" d="M975.88,-538.4C1040.79,-514.2 1127.14,-482 1156.63,-469.54"/>
<polygon fill="#263238" stroke="#263238" stroke-width="2.2" points="1157.67,-472.34 1164.01,-465.94 1155.06,-466.99 1157.67,-472.34"/>
<text xml:space="preserve" text-anchor="middle" x="1152.08" y="-478.36" font-family="Arial" font-size="12.00" fill="#37474f">нет</text>
</g>
<!-- bicall -->
<g id="node5" class="node">
<title>bicall</title>
<path fill="#e8f5e9" stroke="#2e7d32" stroke-width="2.5" d="M250.25,-423.26C250.25,-423.26 107.75,-423.26 107.75,-423.26 101.75,-423.26 95.75,-417.26 95.75,-411.26 95.75,-411.26 95.75,-358.22 95.75,-358.22 95.75,-352.22 101.75,-346.22 107.75,-346.22 107.75,-346.22 250.25,-346.22 250.25,-346.22 256.25,-346.22 262.25,-352.22 262.25,-358.22 262.25,-358.22 262.25,-411.26 262.25,-411.26 262.25,-417.26 256.25,-423.26 250.25,-423.26"/>
<text xml:space="preserve" text-anchor="middle" x="179" y="-401.29" font-family="Arial" font-size="11.00">Вызов bi&#45;encoder сервиса</text>
<text xml:space="preserve" text-anchor="middle" x="179" y="-387.79" font-family="Arial" font-size="11.00">URL (BIENCODER_URL)</text>
<text xml:space="preserve" text-anchor="middle" x="179" y="-374.29" font-family="Arial" font-size="11.00">маршрут (/score)</text>
<text xml:space="preserve" text-anchor="middle" x="179" y="-360.79" font-family="Arial" font-size="11.00">HTTP POST, Python API</text>
</g>
<!-- bi_gate&#45;&gt;bicall -->
<g id="edge3" class="edge">
<title>bi_gate&#45;&gt;bicall</title>
<path fill="none" stroke="#263238" stroke-width="2.2" d="M39.54,-384.74C52.24,-384.74 82.33,-384.74 82.33,-384.74 82.33,-384.74 82.52,-384.74 82.86,-384.74"/>
<polygon fill="#263238" stroke="#263238" stroke-width="2.2" points="82.7,-387.72 91.2,-384.74 82.7,-381.77 82.7,-387.72"/>
</g>
<!-- fastapi -->
<g id="node6" class="node">
<title>fastapi</title>
<path fill="#e8f5e9" stroke="#2e7d32" stroke-width="2.5" d="M466.5,-416.51C466.5,-416.51 331.5,-416.51 331.5,-416.51 325.5,-416.51 319.5,-410.51 319.5,-404.51 319.5,-404.51 319.5,-364.97 319.5,-364.97 319.5,-358.97 325.5,-352.97 331.5,-352.97 331.5,-352.97 466.5,-352.97 466.5,-352.97 472.5,-352.97 478.5,-358.97 478.5,-364.97 478.5,-364.97 478.5,-404.51 478.5,-404.51 478.5,-410.51 472.5,-416.51 466.5,-416.51"/>
<text xml:space="preserve" text-anchor="middle" x="399" y="-394.54" font-family="Arial" font-size="11.00">Сервис FastAPI</text>
<text xml:space="preserve" text-anchor="middle" x="399" y="-381.04" font-family="Arial" font-size="11.00">(11_api_server.py)</text>
<text xml:space="preserve" text-anchor="middle" x="399" y="-367.54" font-family="Arial" font-size="11.00">Загрузка ранжировщика</text>
</g>
<!-- bicall&#45;&gt;fastapi -->
<g id="edge4" class="edge">
<title>bicall&#45;&gt;fastapi</title>
<path fill="none" stroke="#263238" stroke-width="2.2" d="M263.47,-384.74C275.01,-384.74 293.24,-384.74 306.99,-384.74"/>
<polygon fill="#263238" stroke="#263238" stroke-width="2.2" points="306.6,-387.72 315.1,-384.74 306.6,-381.77 306.6,-387.72"/>
</g>
<!-- ranker -->
<g id="node7" class="node">
<title>ranker</title>
<path fill="#e0f2f1" stroke="#00695c" stroke-width="2.5" d="M697.62,-416.51C697.62,-416.51 548.38,-416.51 548.38,-416.51 542.38,-416.51 536.38,-410.51 536.38,-404.51 536.38,-404.51 536.38,-364.97 536.38,-364.97 536.38,-358.97 542.38,-352.97 548.38,-352.97 548.38,-352.97 697.62,-352.97 697.62,-352.97 703.62,-352.97 709.62,-358.97 709.62,-364.97 709.62,-364.97 709.62,-404.51 709.62,-404.51 709.62,-410.51 703.62,-416.51 697.62,-416.51"/>
<text xml:space="preserve" text-anchor="middle" x="623" y="-394.54" font-family="Arial" font-size="11.00">Ранжировщик</text>
<text xml:space="preserve" text-anchor="middle" x="623" y="-381.04" font-family="Arial" font-size="11.00">(ATSRanker)</text>
<text xml:space="preserve" text-anchor="middle" x="623" y="-367.54" font-family="Arial" font-size="11.00">Косинусное сходство, top&#45;k</text>
</g>
<!-- fastapi&#45;&gt;ranker -->
<g id="edge5" class="edge">
<title>fastapi&#45;&gt;ranker</title>
<path fill="none" stroke="#263238" stroke-width="2.2" d="M479.53,-384.74C488.97,-384.74 508.07,-384.74 523.76,-384.74"/>
<polygon fill="#263238" stroke="#263238" stroke-width="2.2" points="523.53,-387.72 532.03,-384.74 523.53,-381.77 523.53,-387.72"/>
</g>
<!-- appscore -->
<g id="node8" class="node">
<title>appscore</title>
<path fill="#e8f5e9" stroke="#2e7d32" stroke-width="2.5" d="M890.88,-416.51C890.88,-416.51 779.12,-416.51 779.12,-416.51 773.12,-416.51 767.12,-410.51 767.12,-404.51 767.12,-404.51 767.12,-364.97 767.12,-364.97 767.12,-358.97 773.12,-352.97 779.12,-352.97 779.12,-352.97 890.88,-352.97 890.88,-352.97 896.88,-352.97 902.88,-358.97 902.88,-364.97 902.88,-364.97 902.88,-404.51 902.88,-404.51 902.88,-410.51 896.88,-416.51 890.88,-416.51"/>
<text xml:space="preserve" text-anchor="middle" x="835" y="-394.54" font-family="Arial" font-size="11.00">Оценка заявки</text>
<text xml:space="preserve" text-anchor="middle" x="835" y="-381.04" font-family="Arial" font-size="11.00">(application.score)</text>
<text xml:space="preserve" text-anchor="middle" x="835" y="-367.54" font-family="Arial" font-size="11.00">аудит (analysis_run)</text>
</g>
<!-- ranker&#45;&gt;appscore -->
<g id="edge6" class="edge">
<title>ranker&#45;&gt;appscore</title>
<path fill="none" stroke="#263238" stroke-width="2.2" d="M710.77,-384.74C724.33,-384.74 742.83,-384.74 754.63,-384.74"/>
<polygon fill="#263238" stroke="#263238" stroke-width="2.2" points="754.25,-387.72 762.75,-384.74 754.25,-381.77 754.25,-387.72"/>
</g>
<!-- onlyscore -->
<g id="node9" class="node">
<title>onlyscore</title>
<path fill="#f3e5f5" stroke="#6a1b9a" stroke-width="2.5" stroke-dasharray="5,2" d="M1125.12,-423.26C1125.12,-423.26 972.88,-423.26 972.88,-423.26 966.88,-423.26 960.88,-417.26 960.88,-411.26 960.88,-411.26 960.88,-358.22 960.88,-358.22 960.88,-352.22 966.88,-346.22 972.88,-346.22 972.88,-346.22 1125.12,-346.22 1125.12,-346.22 1131.12,-346.22 1137.12,-352.22 1137.12,-358.22 1137.12,-358.22 1137.12,-411.26 1137.12,-411.26 1137.12,-417.26 1131.12,-423.26 1125.12,-423.26"/>
<text xml:space="preserve" text-anchor="middle" x="1049" y="-401.29" font-family="Arial" font-size="11.00">Ветка «только score»</text>
<text xml:space="preserve" text-anchor="middle" x="1049" y="-387.79" font-family="Arial" font-size="11.00">(bi&#45;encoder)</text>
<text xml:space="preserve" text-anchor="middle" x="1049" y="-374.29" font-family="Arial" font-size="11.00">Не заменяет объяснимость</text>
<text xml:space="preserve" text-anchor="middle" x="1049" y="-360.79" font-family="Arial" font-size="11.00">по критериям</text>
</g>
<!-- appscore&#45;&gt;onlyscore -->
<g id="edge7" class="edge">
<title>appscore&#45;&gt;onlyscore</title>
<path fill="none" stroke="#263238" stroke-width="2.2" d="M903.96,-384.74C905.48,-384.74 906.33,-384.74 906.33,-384.74 906.33,-384.74 928.42,-384.74 948.01,-384.74"/>
<polygon fill="#263238" stroke="#263238" stroke-width="2.2" points="947.84,-387.72 956.34,-384.74 947.84,-381.77 947.84,-387.72"/>
</g>
<!-- flow_anchor -->
<!-- onlyscore&#45;&gt;flow_anchor -->
<!-- llmprov -->
<g id="node11" class="node">
<title>llmprov</title>
<path fill="#e8f5e9" stroke="#2e7d32" stroke-width="2.5" d="M1413.12,-409.76C1413.12,-409.76 1266.88,-409.76 1266.88,-409.76 1260.88,-409.76 1254.88,-403.76 1254.88,-397.76 1254.88,-397.76 1254.88,-371.72 1254.88,-371.72 1254.88,-365.72 1260.88,-359.72 1266.88,-359.72 1266.88,-359.72 1413.12,-359.72 1413.12,-359.72 1419.12,-359.72 1425.12,-365.72 1425.12,-371.72 1425.12,-371.72 1425.12,-397.76 1425.12,-397.76 1425.12,-403.76 1419.12,-409.76 1413.12,-409.76"/>
<text xml:space="preserve" text-anchor="middle" x="1340" y="-387.79" font-family="Arial" font-size="11.00">Провайдер LLM</text>
<text xml:space="preserve" text-anchor="middle" x="1340" y="-374.29" font-family="Arial" font-size="11.00">OpenAI / Anthropic / Google</text>
</g>
<!-- llm_gate&#45;&gt;llmprov -->
<g id="edge8" class="edge">
<title>llm_gate&#45;&gt;llmprov</title>
<path fill="none" stroke="#263238" stroke-width="2.2" d="M1198.24,-384.74C1210.88,-384.74 1242,-384.74 1242,-384.74 1242,-384.74 1242.02,-384.74 1242.06,-384.74"/>
<polygon fill="#263238" stroke="#263238" stroke-width="2.2" points="1242.03,-387.72 1250.53,-384.74 1242.03,-381.77 1242.03,-387.72"/>
</g>
<!-- scoring -->
<g id="node12" class="node">
<title>scoring</title>
<path fill="#e8f5e9" stroke="#2e7d32" stroke-width="2.5" d="M1649.25,-416.51C1649.25,-416.51 1494.75,-416.51 1494.75,-416.51 1488.75,-416.51 1482.75,-410.51 1482.75,-404.51 1482.75,-404.51 1482.75,-364.97 1482.75,-364.97 1482.75,-358.97 1488.75,-352.97 1494.75,-352.97 1494.75,-352.97 1649.25,-352.97 1649.25,-352.97 1655.25,-352.97 1661.25,-358.97 1661.25,-364.97 1661.25,-364.97 1661.25,-404.51 1661.25,-404.51 1661.25,-410.51 1655.25,-416.51 1649.25,-416.51"/>
<text xml:space="preserve" text-anchor="middle" x="1572" y="-394.54" font-family="Arial" font-size="11.00">Скоринг заявки</text>
<text xml:space="preserve" text-anchor="middle" x="1572" y="-381.04" font-family="Arial" font-size="11.00">(scoreApplication())</text>
<text xml:space="preserve" text-anchor="middle" x="1572" y="-367.54" font-family="Arial" font-size="11.00">Критериальный LLM scoring</text>
</g>
<!-- llmprov&#45;&gt;scoring -->
<g id="edge9" class="edge">
<title>llmprov&#45;&gt;scoring</title>
<path fill="none" stroke="#263238" stroke-width="2.2" d="M1426.2,-384.74C1436.8,-384.74 1454.99,-384.74 1469.95,-384.74"/>
<polygon fill="#263238" stroke="#263238" stroke-width="2.2" points="1469.69,-387.72 1478.19,-384.74 1469.69,-381.77 1469.69,-387.72"/>
</g>
<!-- llmwrite -->
<g id="node13" class="node">
<title>llmwrite</title>
<path fill="#e8f5e9" stroke="#2e7d32" stroke-width="2.5" d="M1883.5,-423.26C1883.5,-423.26 1730.5,-423.26 1730.5,-423.26 1724.5,-423.26 1718.5,-417.26 1718.5,-411.26 1718.5,-411.26 1718.5,-358.22 1718.5,-358.22 1718.5,-352.22 1724.5,-346.22 1730.5,-346.22 1730.5,-346.22 1883.5,-346.22 1883.5,-346.22 1889.5,-346.22 1895.5,-352.22 1895.5,-358.22 1895.5,-358.22 1895.5,-411.26 1895.5,-411.26 1895.5,-417.26 1889.5,-423.26 1883.5,-423.26"/>
<text xml:space="preserve" text-anchor="middle" x="1807" y="-401.29" font-family="Arial" font-size="11.00">Запись LLM&#45;результата</text>
<text xml:space="preserve" text-anchor="middle" x="1807" y="-387.79" font-family="Arial" font-size="11.00">(criterion_score)</text>
<text xml:space="preserve" text-anchor="middle" x="1807" y="-374.29" font-family="Arial" font-size="11.00">(application.score)</text>
<text xml:space="preserve" text-anchor="middle" x="1807" y="-360.79" font-family="Arial" font-size="11.00">Итог по критериям и заявке</text>
</g>
<!-- scoring&#45;&gt;llmwrite -->
<g id="edge10" class="edge">
<title>scoring&#45;&gt;llmwrite</title>
<path fill="none" stroke="#263238" stroke-width="2.2" d="M1662.23,-384.74C1673.7,-384.74 1691.36,-384.74 1705.59,-384.74"/>
<polygon fill="#263238" stroke="#263238" stroke-width="2.2" points="1705.59,-387.72 1714.09,-384.74 1705.59,-381.77 1705.59,-387.72"/>
</g>
<!-- llmwrite&#45;&gt;flow_anchor -->
<!-- sat_legend -->
<g id="node14" class="node">
<title>sat_legend</title>
<path fill="lightgrey" stroke="none" stroke-width="2.5" d="M1305.38,-211.5C1305.38,-211.5 792.62,-211.5 792.62,-211.5 786.62,-211.5 780.62,-205.5 780.62,-199.5 780.62,-199.5 780.62,-12 780.62,-12 780.62,-6 786.62,0 792.62,0 792.62,0 1305.38,0 1305.38,0 1311.38,0 1317.38,-6 1317.38,-12 1317.38,-12 1317.38,-199.5 1317.38,-199.5 1317.38,-205.5 1311.38,-211.5 1305.38,-211.5"/>
<polygon fill="none" stroke="#cfd8dc" points="790.62,-170 790.62,-201.5 1307.38,-201.5 1307.38,-170 790.62,-170"/>
<text xml:space="preserve" text-anchor="start" x="799.62" y="-183.05" font-family="Arial" font-weight="bold" font-size="11.00">Легенда SAT (Status Assertion Taxonomy)</text>
<polygon fill="none" stroke="#cfd8dc" points="790.62,-130 790.62,-160 1307.38,-160 1307.38,-130 790.62,-130"/>
<text xml:space="preserve" text-anchor="start" x="799.62" y="-141.25" font-family="Arial" font-size="10.00" fill="#546e7a">C4 Container и BPMN — та же цветовая схема; BPMN — процесс, SAT — эпистемический статус элемента.</text>
<polygon fill="#fff8e1" stroke="none" points="790.62,-90 790.62,-120 956.21,-120 956.21,-90 790.62,-90"/>
<polygon fill="none" stroke="#cfd8dc" points="790.62,-90 790.62,-120 956.21,-120 956.21,-90 790.62,-90"/>
<text xml:space="preserve" text-anchor="start" x="812.67" y="-101.25" font-family="Arial" font-size="10.00">Архитектурное допущение</text>
<polygon fill="#e3f2fd" stroke="none" points="966.21,-90 966.21,-120 1116.04,-120 1116.04,-90 966.21,-90"/>
<polygon fill="none" stroke="#cfd8dc" points="966.21,-90 966.21,-120 1116.04,-120 1116.04,-90 966.21,-90"/>
<text xml:space="preserve" text-anchor="start" x="988.25" y="-101.25" font-family="Arial" font-size="10.00">Архитектурный подход</text>
<polygon fill="#f3e5f5" stroke="none" points="1126.04,-90 1126.04,-120 1307.38,-120 1307.38,-90 1126.04,-90"/>
<polygon fill="none" stroke="#cfd8dc" points="1126.04,-90 1126.04,-120 1307.38,-120 1307.38,-90 1126.04,-90"/>
<text xml:space="preserve" text-anchor="start" x="1153.33" y="-101.25" font-family="Arial" font-size="10.00">Концептуальный компонент</text>
<polygon fill="#f1f8e9" stroke="none" points="790.62,-50 790.62,-80 956.21,-80 956.21,-50 790.62,-50"/>
<polygon fill="none" stroke="#cfd8dc" points="790.62,-50 790.62,-80 956.21,-80 956.21,-50 790.62,-50"/>
<text xml:space="preserve" text-anchor="start" x="842.67" y="-61.25" font-family="Arial" font-size="10.00">Исследовано</text>
<polygon fill="#e8f5e9" stroke="none" points="966.21,-50 966.21,-80 1116.04,-80 1116.04,-50 966.21,-50"/>
<polygon fill="none" stroke="#cfd8dc" points="966.21,-50 966.21,-80 1116.04,-80 1116.04,-50 966.21,-50"/>
<text xml:space="preserve" text-anchor="start" x="1011.88" y="-61.25" font-family="Arial" font-size="10.00">Реализовано</text>
<polygon fill="#e0f2f1" stroke="none" points="1126.04,-50 1126.04,-80 1307.38,-80 1307.38,-50 1126.04,-50"/>
<polygon fill="none" stroke="#cfd8dc" points="1126.04,-50 1126.04,-80 1307.38,-80 1307.38,-50 1126.04,-50"/>
<text xml:space="preserve" text-anchor="start" x="1148.08" y="-61.25" font-family="Arial" font-size="10.00">Экспериментально проверено</text>
<polygon fill="none" stroke="#cfd8dc" points="790.62,-10 790.62,-40 1307.38,-40 1307.38,-10 790.62,-10"/>
<text xml:space="preserve" text-anchor="start" x="799.62" y="-21.25" font-family="Arial" font-size="10.00" fill="#546e7a">Зелёная рамка — реализовано; бирюзовая — эксперимент; синяя заливка у ромба — выбор ветки.</text>
</g>
<!-- flow_anchor&#45;&gt;sat_legend -->
</g>
</svg>
