<?xml version="1.0" encoding="UTF-8" standalone="no"?>
<!DOCTYPE svg PUBLIC "-//W3C//DTD SVG 1.1//EN"
 "http://www.w3.org/Graphics/SVG/1.1/DTD/svg11.dtd">
<!-- Generated by graphviz version 15.0.0 (20260523.1842)
 -->
<!-- Title: C4ContainerArchitecture Pages: 1 -->
<svg width="1115pt" height="864pt"
 viewBox="0.00 0.00 1115.00 864.00" xmlns="http://www.w3.org/2000/svg" xmlns:xlink="http://www.w3.org/1999/xlink">
  <title id="title">Диаграмма контейнеров C4 с разграничением статусов компонентов</title>
  <desc id="desc">C4 Container диаграмма Reqcore и ML-сервиса. Статусы компонентов кодируются цветом рамки по легенде SAT.</desc>

<g id="graph0" class="graph" transform="scale(0.695227 0.695227) rotate(0) translate(32.4 1210.36)">

<polygon fill="#ffffff" stroke="none" points="-32.4,32.4 -32.4,-1210.36 1571.65,-1210.36 1571.65,32.4 -32.4,32.4"/>
<text xml:space="preserve" text-anchor="start" x="14" y="-1151.86" font-family="Arial" font-weight="bold" font-size="18.00">Диаграмма контейнеров C4: Reqcore и модуль семантического ранжирования</text>
<text xml:space="preserve" text-anchor="start" x="14" y="-1128.46" font-family="Arial" font-size="11.00">Нотация C4 Container (уровень контейнеров) + надстройка SAT: цвет рамки показывает статус утверждения о компоненте.</text>
<text xml:space="preserve" text-anchor="start" x="14" y="-1107.71" font-family="Arial" font-size="10.00" fill="#546e7a">Стрелки — связи контейнеров; подписи маршрутов и полей БД даны в скобках после русских названий.</text>
<g id="clust1" class="cluster">
<title>cluster_diagram</title>
</g>
<g id="clust2" class="cluster">
<title>cluster_system</title>
<path fill="#e3f2fd" stroke="#1565c0" stroke-width="2.5" d="M32,-20C32,-20 635,-20 635,-20 641,-20 647,-26 647,-32 647,-32 647,-1063.46 647,-1063.46 647,-1069.46 641,-1075.46 635,-1075.46 635,-1075.46 32,-1075.46 32,-1075.46 26,-1075.46 20,-1069.46 20,-1063.46 20,-1063.46 20,-32 20,-32 20,-26 26,-20 32,-20"/>
<text xml:space="preserve" text-anchor="middle" x="298.75" y="-1060.06" font-family="Arial" font-size="12.00">Граница системы: ATS Reqcore + модуль семантического ранжирования (архитектурный подход)</text>
</g>
<g id="clust3" class="cluster">
<title>cluster_row_top</title>
</g>
<g id="clust4" class="cluster">
<title>cluster_row_mid</title>
</g>
<g id="clust5" class="cluster">
<title>cluster_row_offline</title>
</g>
<g id="clust6" class="cluster">
<title>cluster_future</title>
<path fill="#fafafa" stroke="#b0bec5" stroke-dasharray="5,2" d="M671,-921.8C671,-921.8 1045,-921.8 1045,-921.8 1051,-921.8 1057,-927.8 1057,-933.8 1057,-933.8 1057,-1037.46 1057,-1037.46 1057,-1043.46 1051,-1049.46 1045,-1049.46 1045,-1049.46 671,-1049.46 671,-1049.46 665,-1049.46 659,-1043.46 659,-1037.46 659,-1037.46 659,-933.8 659,-933.8 659,-927.8 665,-921.8 671,-921.8"/>
<text xml:space="preserve" text-anchor="middle" x="760" y="-1035.01" font-family="Arial" font-size="11.00">Перспектива (вне границы системы)</text>
</g>
<!-- web -->
<g id="node1" class="node">
<title>web</title>
<path fill="#e8f5e9" stroke="#2e7d32" stroke-width="2.5" d="M432.72,-1005.21C432.72,-1005.21 295.28,-1005.21 295.28,-1005.21 289.28,-1005.21 283.28,-999.21 283.28,-993.21 283.28,-993.21 283.28,-956.55 283.28,-956.55 283.28,-950.55 289.28,-944.55 295.28,-944.55 295.28,-944.55 432.72,-944.55 432.72,-944.55 438.72,-944.55 444.72,-950.55 444.72,-956.55 444.72,-956.55 444.72,-993.21 444.72,-993.21 444.72,-999.21 438.72,-1005.21 432.72,-1005.21"/>
<text xml:space="preserve" text-anchor="middle" x="364" y="-984.68" font-family="Arial" font-size="11.00">Веб&#45;приложение Reqcore</text>
<text xml:space="preserve" text-anchor="middle" x="364" y="-971.18" font-family="Arial" font-size="11.00">UI вакансий, откликов,</text>
<text xml:space="preserve" text-anchor="middle" x="364" y="-957.68" font-family="Arial" font-size="11.00">результатов анализа</text>
</g>
<!-- backend -->
<g id="node2" class="node">
<title>backend</title>
<path fill="#e8f5e9" stroke="#2e7d32" stroke-width="2.5" d="M412.09,-890.8C412.09,-890.8 315.91,-890.8 315.91,-890.8 309.91,-890.8 303.91,-884.8 303.91,-878.8 303.91,-878.8 303.91,-842.14 303.91,-842.14 303.91,-836.14 309.91,-830.14 315.91,-830.14 315.91,-830.14 412.09,-830.14 412.09,-830.14 418.09,-830.14 424.09,-836.14 424.09,-842.14 424.09,-842.14 424.09,-878.8 424.09,-878.8 424.09,-884.8 418.09,-890.8 412.09,-890.8"/>
<text xml:space="preserve" text-anchor="middle" x="364" y="-870.27" font-family="Arial" font-size="11.00">Бэкенд Reqcore</text>
<text xml:space="preserve" text-anchor="middle" x="364" y="-856.77" font-family="Arial" font-size="11.00">Выбор LLM&#45; или</text>
<text xml:space="preserve" text-anchor="middle" x="364" y="-843.27" font-family="Arial" font-size="11.00">bi&#45;encoder scoring</text>
</g>
<!-- web&#45;&gt;backend -->
<g id="edge1" class="edge">
<title>web&#45;&gt;backend</title>
<path fill="none" stroke="#263238" stroke-width="2.2" d="M364,-943.46C364,-931.21 364,-916.88 364,-903.66"/>
<polygon fill="#263238" stroke="#263238" stroke-width="2.2" points="366.98,-903.74 364,-895.24 361.03,-903.74 366.98,-903.74"/>
</g>
<!-- db -->
<g id="node3" class="node">
<title>db</title>
<path fill="#e8f5e9" stroke="#2e7d32" stroke-width="2.5" d="M235.84,-697.22C235.84,-697.22 102.16,-697.22 102.16,-697.22 96.16,-697.22 90.16,-691.22 90.16,-685.22 90.16,-685.22 90.16,-648.56 90.16,-648.56 90.16,-642.56 96.16,-636.56 102.16,-636.56 102.16,-636.56 235.84,-636.56 235.84,-636.56 241.84,-636.56 247.84,-642.56 247.84,-648.56 247.84,-648.56 247.84,-685.22 247.84,-685.22 247.84,-691.22 241.84,-697.22 235.84,-697.22"/>
<text xml:space="preserve" text-anchor="middle" x="169" y="-676.69" font-family="Arial" font-size="11.00">Основная БД Reqcore</text>
<text xml:space="preserve" text-anchor="middle" x="169" y="-663.19" font-family="Arial" font-size="11.00">оценка (application.score)</text>
<text xml:space="preserve" text-anchor="middle" x="169" y="-649.69" font-family="Arial" font-size="11.00">аудит (analysis_run)</text>
</g>
<!-- backend&#45;&gt;db -->
<g id="edge2" class="edge">
<title>backend&#45;&gt;db</title>
<path fill="none" stroke="#263238" stroke-width="2.2" d="M329.02,-829.1C300.19,-804.06 264,-772.64 264,-772.64 264,-772.64 231.51,-736.81 204.53,-707.06"/>
<polygon fill="#263238" stroke="#263238" stroke-width="2.2" points="206.88,-705.23 198.97,-700.94 202.48,-709.23 206.88,-705.23"/>
</g>
<!-- llm_ext -->
<g id="node4" class="node">
<title>llm_ext</title>
<path fill="#e8f5e9" stroke="#2e7d32" stroke-width="2.5" d="M436.47,-703.97C436.47,-703.97 291.53,-703.97 291.53,-703.97 285.53,-703.97 279.53,-697.97 279.53,-691.97 279.53,-691.97 279.53,-641.81 279.53,-641.81 279.53,-635.81 285.53,-629.81 291.53,-629.81 291.53,-629.81 436.47,-629.81 436.47,-629.81 442.47,-629.81 448.47,-635.81 448.47,-641.81 448.47,-641.81 448.47,-691.97 448.47,-691.97 448.47,-697.97 442.47,-703.97 436.47,-703.97"/>
<text xml:space="preserve" text-anchor="middle" x="364" y="-683.44" font-family="Arial" font-size="11.00">Внешние LLM&#45;провайдеры</text>
<text xml:space="preserve" text-anchor="middle" x="364" y="-669.94" font-family="Arial" font-size="11.00">OpenAI / Anthropic / Google</text>
<text xml:space="preserve" text-anchor="middle" x="364" y="-656.44" font-family="Arial" font-size="11.00">Критериальный scoring</text>
<text xml:space="preserve" text-anchor="middle" x="364" y="-642.94" font-family="Arial" font-size="11.00">в контуре Reqcore</text>
</g>
<!-- backend&#45;&gt;llm_ext -->
<g id="edge3" class="edge">
<title>backend&#45;&gt;llm_ext</title>
<path fill="none" stroke="#263238" stroke-width="2.2" d="M364,-829.11C364,-798.87 364,-751.97 364,-716.54"/>
<polygon fill="#263238" stroke="#263238" stroke-width="2.2" points="366.98,-716.83 364,-708.33 361.03,-716.83 366.98,-716.83"/>
<text xml:space="preserve" text-anchor="middle" x="384.62" y="-797.69" font-family="Arial" font-size="11.00">LLM API</text>
</g>
<!-- api -->
<g id="node5" class="node">
<title>api</title>
<path fill="#e8f5e9" stroke="#2e7d32" stroke-width="2.5" d="M287.84,-506.14C287.84,-506.14 94.16,-506.14 94.16,-506.14 88.16,-506.14 82.16,-500.14 82.16,-494.14 82.16,-494.14 82.16,-443.98 82.16,-443.98 82.16,-437.98 88.16,-431.98 94.16,-431.98 94.16,-431.98 287.84,-431.98 287.84,-431.98 293.84,-431.98 299.84,-437.98 299.84,-443.98 299.84,-443.98 299.84,-494.14 299.84,-494.14 299.84,-500.14 293.84,-506.14 287.84,-506.14"/>
<text xml:space="preserve" text-anchor="middle" x="191" y="-485.61" font-family="Arial" font-size="11.00">API ранжирования</text>
<text xml:space="preserve" text-anchor="middle" x="191" y="-472.11" font-family="Arial" font-size="11.00">(ATS Semantic Ranking Engine API)</text>
<text xml:space="preserve" text-anchor="middle" x="191" y="-458.61" font-family="Arial" font-size="11.00">FastAPI: индекс, ранг, оценка</text>
<text xml:space="preserve" text-anchor="middle" x="191" y="-445.11" font-family="Arial" font-size="11.00">(/index/candidate, /search/rank, /score)</text>
</g>
<!-- backend&#45;&gt;api -->
<!-- db&#45;&gt;api -->
<!-- bienv -->
<g id="node6" class="node">
<title>bienv</title>
<path fill="#e0f2f1" stroke="#00695c" stroke-width="2.5" d="M253.09,-370.23C253.09,-370.23 120.91,-370.23 120.91,-370.23 114.91,-370.23 108.91,-364.23 108.91,-358.23 108.91,-358.23 108.91,-321.57 108.91,-321.57 108.91,-315.57 114.91,-309.57 120.91,-309.57 120.91,-309.57 253.09,-309.57 253.09,-309.57 259.09,-309.57 265.09,-315.57 265.09,-321.57 265.09,-321.57 265.09,-358.23 265.09,-358.23 265.09,-364.23 259.09,-370.23 253.09,-370.23"/>
<text xml:space="preserve" text-anchor="middle" x="187" y="-349.7" font-family="Arial" font-size="11.00">Среда bi&#45;encoder</text>
<text xml:space="preserve" text-anchor="middle" x="187" y="-336.2" font-family="Arial" font-size="11.00">(cointegrated/rubert&#45;tiny2)</text>
<text xml:space="preserve" text-anchor="middle" x="187" y="-322.7" font-family="Arial" font-size="11.00">Косинусное сходство</text>
</g>
<!-- api&#45;&gt;bienv -->
<g id="edge4" class="edge">
<title>api&#45;&gt;bienv</title>
<path fill="none" stroke="#263238" stroke-width="2.2" d="M189.83,-430.94C189.36,-415.87 188.81,-398.38 188.32,-382.85"/>
<polygon fill="#263238" stroke="#263238" stroke-width="2.2" points="191.31,-383.16 188.07,-374.76 185.36,-383.34 191.31,-383.16"/>
</g>
<!-- pipeline -->
<g id="node8" class="node">
<title>pipeline</title>
<path fill="#e8f5e9" stroke="#2e7d32" stroke-width="2.5" d="M503.34,-376.98C503.34,-376.98 384.66,-376.98 384.66,-376.98 378.66,-376.98 372.66,-370.98 372.66,-364.98 372.66,-364.98 372.66,-314.82 372.66,-314.82 372.66,-308.82 378.66,-302.82 384.66,-302.82 384.66,-302.82 503.34,-302.82 503.34,-302.82 509.34,-302.82 515.34,-308.82 515.34,-314.82 515.34,-314.82 515.34,-364.98 515.34,-364.98 515.34,-370.98 509.34,-376.98 503.34,-376.98"/>
<text xml:space="preserve" text-anchor="middle" x="444" y="-356.45" font-family="Arial" font-size="11.00">Офлайн&#45;пайплайн</text>
<text xml:space="preserve" text-anchor="middle" x="444" y="-342.95" font-family="Arial" font-size="11.00">Подготовка пар, split,</text>
<text xml:space="preserve" text-anchor="middle" x="444" y="-329.45" font-family="Arial" font-size="11.00">fine&#45;tuning</text>
<text xml:space="preserve" text-anchor="middle" x="444" y="-315.95" font-family="Arial" font-size="11.00">скрипты Python 01–17</text>
</g>
<!-- api&#45;&gt;pipeline -->
<!-- index -->
<g id="node7" class="node">
<title>index</title>
<path fill="#e8f5e9" stroke="#2e7d32" stroke-width="2.5" d="M287.59,-257.82C287.59,-257.82 80.41,-257.82 80.41,-257.82 74.41,-257.82 68.41,-251.82 68.41,-245.82 68.41,-245.82 68.41,-209.16 68.41,-209.16 68.41,-203.16 74.41,-197.16 80.41,-197.16 80.41,-197.16 287.59,-197.16 287.59,-197.16 293.59,-197.16 299.59,-203.16 299.59,-209.16 299.59,-209.16 299.59,-245.82 299.59,-245.82 299.59,-251.82 293.59,-257.82 287.59,-257.82"/>
<text xml:space="preserve" text-anchor="middle" x="184" y="-237.29" font-family="Arial" font-size="11.00">Индекс кандидатов</text>
<text xml:space="preserve" text-anchor="middle" x="184" y="-223.79" font-family="Arial" font-size="11.00">индекс в памяти (CANDIDATE_INDEX)</text>
<text xml:space="preserve" text-anchor="middle" x="184" y="-210.29" font-family="Arial" font-size="11.00">для API ранжирования</text>
</g>
<!-- bienv&#45;&gt;index -->
<g id="edge5" class="edge">
<title>bienv&#45;&gt;index</title>
<path fill="none" stroke="#263238" stroke-width="2.2" d="M186.17,-308.44C185.85,-296.73 185.49,-283.15 185.14,-270.55"/>
<polygon fill="#263238" stroke="#263238" stroke-width="2.2" points="188.12,-270.6 184.92,-262.18 182.17,-270.76 188.12,-270.6"/>
</g>
<!-- artifacts -->
<g id="node9" class="node">
<title>artifacts</title>
<path fill="#f1f8e9" stroke="#558b2f" stroke-width="2.5" d="M507.97,-257.82C507.97,-257.82 384.03,-257.82 384.03,-257.82 378.03,-257.82 372.03,-251.82 372.03,-245.82 372.03,-245.82 372.03,-209.16 372.03,-209.16 372.03,-203.16 378.03,-197.16 384.03,-197.16 384.03,-197.16 507.97,-197.16 507.97,-197.16 513.97,-197.16 519.97,-203.16 519.97,-209.16 519.97,-209.16 519.97,-245.82 519.97,-245.82 519.97,-251.82 513.97,-257.82 507.97,-257.82"/>
<text xml:space="preserve" text-anchor="middle" x="446" y="-237.29" font-family="Arial" font-size="11.00">Артефакты данных</text>
<text xml:space="preserve" text-anchor="middle" x="446" y="-223.79" font-family="Arial" font-size="11.00">TSV / SQLite / local files</text>
<text xml:space="preserve" text-anchor="middle" x="446" y="-210.29" font-family="Arial" font-size="11.00">train / val / test</text>
</g>
<!-- pipeline&#45;&gt;artifacts -->
<g id="edge6" class="edge">
<title>pipeline&#45;&gt;artifacts</title>
<path fill="none" stroke="#263238" stroke-width="2.2" d="M444.67,-301.83C444.85,-291.83 445.05,-280.94 445.24,-270.69"/>
<polygon fill="#263238" stroke="#263238" stroke-width="2.2" points="448.21,-270.92 445.39,-262.37 442.26,-270.81 448.21,-270.92"/>
</g>
<!-- metrics -->
<g id="node10" class="node">
<title>metrics</title>
<path fill="#e0f2f1" stroke="#00695c" stroke-width="2.5" d="M555.59,-142.16C555.59,-142.16 384.41,-142.16 384.41,-142.16 378.41,-142.16 372.41,-136.16 372.41,-130.16 372.41,-130.16 372.41,-80 372.41,-80 372.41,-74 378.41,-68 384.41,-68 384.41,-68 555.59,-68 555.59,-68 561.59,-68 567.59,-74 567.59,-80 567.59,-80 567.59,-130.16 567.59,-130.16 567.59,-136.16 561.59,-142.16 555.59,-142.16"/>
<text xml:space="preserve" text-anchor="middle" x="470" y="-121.63" font-family="Arial" font-size="11.00">Офлайн&#45;метрики ранжирования</text>
<text xml:space="preserve" text-anchor="middle" x="470" y="-108.13" font-family="Arial" font-size="11.00">NDCG на K (NDCG@K)</text>
<text xml:space="preserve" text-anchor="middle" x="470" y="-94.63" font-family="Arial" font-size="11.00">Precision@K, Recall@K, MRR</text>
<text xml:space="preserve" text-anchor="middle" x="470" y="-81.13" font-family="Arial" font-size="11.00">val/test split</text>
</g>
<!-- artifacts&#45;&gt;metrics -->
<g id="edge7" class="edge">
<title>artifacts&#45;&gt;metrics</title>
<path fill="none" stroke="#263238" stroke-width="2.2" d="M448.93,-196.06C450.45,-180.23 452,-164.16 452,-164.16 452,-164.16 453.22,-160.23 455.02,-154.41"/>
<polygon fill="#263238" stroke="#263238" stroke-width="2.2" points="457.84,-155.37 457.51,-146.37 452.15,-153.61 457.84,-155.37"/>
</g>
<!-- metrics&#45;&gt;bienv -->
<g id="edge11" class="edge">
<title>metrics&#45;&gt;bienv</title>
<path fill="none" stroke="#263238" stroke-width="2.2" d="M466.17,-143.19C464.99,-154.57 464,-164.16 464,-164.16 464,-164.16 464,-165.16 464,-165.16 464,-165.16 536,-173.16 536,-173.16 536,-173.16 536,-257.82 536,-257.82 536,-257.82 340,-302.82 340,-302.82 340,-302.82 310.56,-309.76 277.5,-317.56"/>
<polygon fill="#263238" stroke="#263238" stroke-width="2.2" points="277.02,-314.62 269.43,-319.46 278.39,-320.41 277.02,-314.62"/>
<text xml:space="preserve" text-anchor="middle" x="555.5" y="-223.79" font-family="Arial" font-size="11.00">модель</text>
</g>
<!-- vectordb -->
<g id="node11" class="node">
<title>vectordb</title>
<path fill="#fff8e1" stroke="#f57f17" stroke-width="2.5" stroke-dasharray="5,2" d="M825.09,-1011.96C825.09,-1011.96 686.91,-1011.96 686.91,-1011.96 680.91,-1011.96 674.91,-1005.96 674.91,-999.96 674.91,-999.96 674.91,-949.8 674.91,-949.8 674.91,-943.8 680.91,-937.8 686.91,-937.8 686.91,-937.8 825.09,-937.8 825.09,-937.8 831.09,-937.8 837.09,-943.8 837.09,-949.8 837.09,-949.8 837.09,-999.96 837.09,-999.96 837.09,-1005.96 831.09,-1011.96 825.09,-1011.96"/>
<text xml:space="preserve" text-anchor="middle" x="756" y="-991.43" font-family="Arial" font-size="11.00">Векторная БД</text>
<text xml:space="preserve" text-anchor="middle" x="756" y="-977.93" font-family="Arial" font-size="11.00">(ANN / Vector DB)</text>
<text xml:space="preserve" text-anchor="middle" x="756" y="-964.43" font-family="Arial" font-size="11.00">Milvus, DiskANN, SPANN</text>
<text xml:space="preserve" text-anchor="middle" x="756" y="-950.93" font-family="Arial" font-size="11.00">масштабирование поиска</text>
</g>
<!-- metrics&#45;&gt;vectordb -->
<!-- flow_anchor -->
<!-- metrics&#45;&gt;flow_anchor -->
<!-- rerank -->
<g id="node12" class="node">
<title>rerank</title>
<path fill="#f3e5f5" stroke="#6a1b9a" stroke-width="2.5" stroke-dasharray="5,2" d="M1029.34,-1005.21C1029.34,-1005.21 880.66,-1005.21 880.66,-1005.21 874.66,-1005.21 868.66,-999.21 868.66,-993.21 868.66,-993.21 868.66,-956.55 868.66,-956.55 868.66,-950.55 874.66,-944.55 880.66,-944.55 880.66,-944.55 1029.34,-944.55 1029.34,-944.55 1035.34,-944.55 1041.34,-950.55 1041.34,-956.55 1041.34,-956.55 1041.34,-993.21 1041.34,-993.21 1041.34,-999.21 1035.34,-1005.21 1029.34,-1005.21"/>
<text xml:space="preserve" text-anchor="middle" x="955" y="-984.68" font-family="Arial" font-size="11.00">Слой переранжирования</text>
<text xml:space="preserve" text-anchor="middle" x="955" y="-971.18" font-family="Arial" font-size="11.00">(LTR / fair ranking)</text>
<text xml:space="preserve" text-anchor="middle" x="955" y="-957.68" font-family="Arial" font-size="11.00">Переранжирование и аудит</text>
</g>
<!-- sat_legend -->
<g id="node13" class="node">
<title>sat_legend</title>
<path fill="lightgrey" stroke="none" stroke-width="2.5" d="M1527.25,-772.64C1527.25,-772.64 1092.75,-772.64 1092.75,-772.64 1086.75,-772.64 1080.75,-766.64 1080.75,-760.64 1080.75,-760.64 1080.75,-573.14 1080.75,-573.14 1080.75,-567.14 1086.75,-561.14 1092.75,-561.14 1092.75,-561.14 1527.25,-561.14 1527.25,-561.14 1533.25,-561.14 1539.25,-567.14 1539.25,-573.14 1539.25,-573.14 1539.25,-760.64 1539.25,-760.64 1539.25,-766.64 1533.25,-772.64 1527.25,-772.64"/>
<polygon fill="none" stroke="#cfd8dc" points="1090.75,-731.14 1090.75,-762.64 1529.25,-762.64 1529.25,-731.14 1090.75,-731.14"/>
<text xml:space="preserve" text-anchor="start" x="1099.75" y="-744.19" font-family="Arial" font-weight="bold" font-size="11.00">Легенда SAT поверх нотации C4 Container</text>
<polygon fill="none" stroke="#cfd8dc" points="1090.75,-691.14 1090.75,-721.14 1529.25,-721.14 1529.25,-691.14 1090.75,-691.14"/>
<text xml:space="preserve" text-anchor="start" x="1099.75" y="-702.39" font-family="Arial" font-size="10.00" fill="#546e7a">C4 — тип элемента; SAT — степень подтверждения в диссертации.</text>
<polygon fill="#fff8e1" stroke="none" points="1090.75,-651.14 1090.75,-681.14 1230.25,-681.14 1230.25,-651.14 1090.75,-651.14"/>
<polygon fill="none" stroke="#cfd8dc" points="1090.75,-651.14 1090.75,-681.14 1230.25,-681.14 1230.25,-651.14 1090.75,-651.14"/>
<text xml:space="preserve" text-anchor="start" x="1099.75" y="-662.39" font-family="Arial" font-size="10.00">Архитектурное допущение</text>
<polygon fill="#e3f2fd" stroke="none" points="1240.25,-651.14 1240.25,-681.14 1364,-681.14 1364,-651.14 1240.25,-651.14"/>
<polygon fill="none" stroke="#cfd8dc" points="1240.25,-651.14 1240.25,-681.14 1364,-681.14 1364,-651.14 1240.25,-651.14"/>
<text xml:space="preserve" text-anchor="start" x="1249.25" y="-662.39" font-family="Arial" font-size="10.00">Архитектурный подход</text>
<polygon fill="#f3e5f5" stroke="none" points="1374,-651.14 1374,-681.14 1529.25,-681.14 1529.25,-651.14 1374,-651.14"/>
<polygon fill="none" stroke="#cfd8dc" points="1374,-651.14 1374,-681.14 1529.25,-681.14 1529.25,-651.14 1374,-651.14"/>
<text xml:space="preserve" text-anchor="start" x="1388.25" y="-662.39" font-family="Arial" font-size="10.00">Концептуальный компонент</text>
<polygon fill="#f1f8e9" stroke="none" points="1090.75,-611.14 1090.75,-641.14 1230.25,-641.14 1230.25,-611.14 1090.75,-611.14"/>
<polygon fill="none" stroke="#cfd8dc" points="1090.75,-611.14 1090.75,-641.14 1230.25,-641.14 1230.25,-611.14 1090.75,-611.14"/>
<text xml:space="preserve" text-anchor="start" x="1129.75" y="-622.39" font-family="Arial" font-size="10.00">Исследовано</text>
<polygon fill="#e8f5e9" stroke="none" points="1240.25,-611.14 1240.25,-641.14 1364,-641.14 1364,-611.14 1240.25,-611.14"/>
<polygon fill="none" stroke="#cfd8dc" points="1240.25,-611.14 1240.25,-641.14 1364,-641.14 1364,-611.14 1240.25,-611.14"/>
<text xml:space="preserve" text-anchor="start" x="1272.88" y="-622.39" font-family="Arial" font-size="10.00">Реализовано</text>
<polygon fill="#e0f2f1" stroke="none" points="1374,-611.14 1374,-641.14 1529.25,-641.14 1529.25,-611.14 1374,-611.14"/>
<polygon fill="none" stroke="#cfd8dc" points="1374,-611.14 1374,-641.14 1529.25,-641.14 1529.25,-611.14 1374,-611.14"/>
<text xml:space="preserve" text-anchor="start" x="1383" y="-622.39" font-family="Arial" font-size="10.00">Экспериментально проверено</text>
<polygon fill="none" stroke="#cfd8dc" points="1090.75,-571.14 1090.75,-601.14 1529.25,-601.14 1529.25,-571.14 1090.75,-571.14"/>
<text xml:space="preserve" text-anchor="start" x="1099.75" y="-582.39" font-family="Arial" font-size="10.00" fill="#546e7a">Светло&#45;зелёная заливка — данные; тёмно&#45;зелёная — код; бирюзовая — эксперимент.</text>
</g>
<!-- flow_anchor&#45;&gt;sat_legend -->
</g>
</svg>
