<?xml version="1.0" encoding="UTF-8" standalone="no"?>
<!DOCTYPE svg PUBLIC "-//W3C//DTD SVG 1.1//EN"
 "http://www.w3.org/Graphics/SVG/1.1/DTD/svg11.dtd">
<!-- Generated by graphviz version 15.0.0 (20260523.1842)
 -->
<!-- Title: C4ContainerArchitecture Pages: 1 -->
<svg width="1248pt" height="960pt"
 viewBox="0.00 0.00 1248.00 960.00" xmlns="http://www.w3.org/2000/svg" xmlns:xlink="http://www.w3.org/1999/xlink">
  <title id="title">Диаграмма контейнеров C4 с разграничением статусов компонентов</title>
  <desc id="desc">C4 Container диаграмма Reqcore и ML-сервиса. Статусы компонентов кодируются цветом рамки по легенде SAT.</desc>

<g id="graph0" class="graph" transform="scale(0.663542 0.663542) rotate(0) translate(36 1410.78)">

<polygon fill="#ffffff" stroke="none" points="-36,36 -36,-1410.78 1845.19,-1410.78 1845.19,36 -36,36"/>
<text xml:space="preserve" text-anchor="start" x="14" y="-1348.68" font-family="Arial" font-weight="bold" font-size="18.00">Диаграмма контейнеров C4: Reqcore и модуль семантического ранжирования</text>
<text xml:space="preserve" text-anchor="start" x="14" y="-1325.28" font-family="Arial" font-size="11.00">Нотация C4 Container (уровень контейнеров) + надстройка SAT: цвет рамки показывает статус утверждения о компоненте.</text>
<text xml:space="preserve" text-anchor="start" x="14" y="-1304.53" font-family="Arial" font-size="10.00" fill="#546e7a">Стрелки — связи контейнеров; подписи маршрутов и полей БД даны в скобках после русских названий.</text>
<g id="clust1" class="cluster">
<title>cluster_diagram</title>
</g>
<g id="clust2" class="cluster">
<title>cluster_system</title>
<path fill="#e3f2fd" stroke="#1565c0" stroke-width="2.5" d="M34.66,-330.16C34.66,-330.16 730.03,-330.16 730.03,-330.16 736.03,-330.16 742.03,-336.16 742.03,-342.16 742.03,-342.16 742.03,-1260.28 742.03,-1260.28 742.03,-1266.28 736.03,-1272.28 730.03,-1272.28 730.03,-1272.28 34.66,-1272.28 34.66,-1272.28 28.66,-1272.28 22.66,-1266.28 22.66,-1260.28 22.66,-1260.28 22.66,-342.16 22.66,-342.16 22.66,-336.16 28.66,-330.16 34.66,-330.16"/>
<text xml:space="preserve" text-anchor="middle" x="301.41" y="-1256.88" font-family="Arial" font-size="12.00">Граница системы: ATS Reqcore + модуль семантического ранжирования (архитектурный подход)</text>
</g>
<g id="clust3" class="cluster">
<title>cluster_row_top</title>
</g>
<g id="clust4" class="cluster">
<title>cluster_row_mid</title>
</g>
<g id="clust5" class="cluster">
<title>cluster_row_offline</title>
</g>
<g id="clust6" class="cluster">
<title>cluster_future</title>
<path fill="#fafafa" stroke="#b0bec5" stroke-dasharray="5,2" d="M767.62,-1118.62C767.62,-1118.62 1199.04,-1118.62 1199.04,-1118.62 1205.04,-1118.62 1211.04,-1124.62 1211.04,-1130.62 1211.04,-1130.62 1211.04,-1234.28 1211.04,-1234.28 1211.04,-1240.28 1205.04,-1246.28 1199.04,-1246.28 1199.04,-1246.28 767.62,-1246.28 767.62,-1246.28 761.62,-1246.28 755.62,-1240.28 755.62,-1234.28 755.62,-1234.28 755.62,-1130.62 755.62,-1130.62 755.62,-1124.62 761.62,-1118.62 767.62,-1118.62"/>
<text xml:space="preserve" text-anchor="middle" x="856.62" y="-1231.83" font-family="Arial" font-size="11.00">Перспектива (вне границы системы)</text>
</g>

<!-- web -->
<g id="node1" class="node">
<title>web</title>
<path fill="#e8f5e9" stroke="#2e7d32" stroke-width="2.5" d="M485.55,-1202.33C485.55,-1202.33 348.12,-1202.33 348.12,-1202.33 342.12,-1202.33 336.12,-1196.33 336.12,-1190.33 336.12,-1190.33 336.12,-1153.67 336.12,-1153.67 336.12,-1147.67 342.12,-1141.67 348.12,-1141.67 348.12,-1141.67 485.55,-1141.67 485.55,-1141.67 491.55,-1141.67 497.55,-1147.67 497.55,-1153.67 497.55,-1153.67 497.55,-1190.33 497.55,-1190.33 497.55,-1196.33 491.55,-1202.33 485.55,-1202.33"/>
<text xml:space="preserve" text-anchor="middle" x="416.83" y="-1181.8" font-family="Arial" font-size="11.00">Веб&#45;приложение Reqcore</text>
<text xml:space="preserve" text-anchor="middle" x="416.83" y="-1168.3" font-family="Arial" font-size="11.00">UI вакансий, откликов,</text>
<text xml:space="preserve" text-anchor="middle" x="416.83" y="-1154.8" font-family="Arial" font-size="11.00">результатов анализа</text>
</g>
<!-- backend -->
<g id="node2" class="node">
<title>backend</title>
<path fill="#e8f5e9" stroke="#2e7d32" stroke-width="2.5" d="M464.92,-1085.33C464.92,-1085.33 368.74,-1085.33 368.74,-1085.33 362.74,-1085.33 356.74,-1079.33 356.74,-1073.33 356.74,-1073.33 356.74,-1036.67 356.74,-1036.67 356.74,-1030.67 362.74,-1024.67 368.74,-1024.67 368.74,-1024.67 464.92,-1024.67 464.92,-1024.67 470.92,-1024.67 476.92,-1030.67 476.92,-1036.67 476.92,-1036.67 476.92,-1073.33 476.92,-1073.33 476.92,-1079.33 470.92,-1085.33 464.92,-1085.33"/>
<text xml:space="preserve" text-anchor="middle" x="416.83" y="-1064.8" font-family="Arial" font-size="11.00">Бэкенд Reqcore</text>
<text xml:space="preserve" text-anchor="middle" x="416.83" y="-1051.3" font-family="Arial" font-size="11.00">Выбор LLM&#45; или</text>
<text xml:space="preserve" text-anchor="middle" x="416.83" y="-1037.8" font-family="Arial" font-size="11.00">bi&#45;encoder scoring</text>
</g>
<!-- web&#45;&gt;backend -->
<g id="edge1" class="edge">
<title>web&#45;&gt;backend</title>
<path fill="none" stroke="#263238" stroke-width="2.2" d="M416.83,-1140.65C416.83,-1140.65 416.83,-1098.27 416.83,-1098.27"/>
<polygon fill="#263238" stroke="#263238" stroke-width="2.2" points="419.81,-1098.27 416.83,-1089.77 413.86,-1098.27 419.81,-1098.27"/>
</g>
<!-- db -->
<g id="node3" class="node">
<title>db</title>
<path fill="#e8f5e9" stroke="#2e7d32" stroke-width="2.5" d="M258.67,-956.33C258.67,-956.33 124.99,-956.33 124.99,-956.33 118.99,-956.33 112.99,-950.33 112.99,-944.33 112.99,-944.33 112.99,-907.67 112.99,-907.67 112.99,-901.67 118.99,-895.67 124.99,-895.67 124.99,-895.67 258.67,-895.67 258.67,-895.67 264.67,-895.67 270.67,-901.67 270.67,-907.67 270.67,-907.67 270.67,-944.33 270.67,-944.33 270.67,-950.33 264.67,-956.33 258.67,-956.33"/>
<text xml:space="preserve" text-anchor="middle" x="191.83" y="-935.8" font-family="Arial" font-size="11.00">Основная БД Reqcore</text>
<text xml:space="preserve" text-anchor="middle" x="191.83" y="-922.3" font-family="Arial" font-size="11.00">оценка (application.score)</text>
<text xml:space="preserve" text-anchor="middle" x="191.83" y="-908.8" font-family="Arial" font-size="11.00">аудит (analysis_run)</text>
</g>
<!-- backend&#45;&gt;db -->
<g id="edge2" class="edge">
<title>backend&#45;&gt;db</title>
<path fill="none" stroke="#263238" stroke-width="2.2" d="M355.65,-1065C289.02,-1065 191.83,-1065 191.83,-1065 191.83,-1065 191.83,-969.37 191.83,-969.37"/>
<polygon fill="#263238" stroke="#263238" stroke-width="2.2" points="194.81,-969.37 191.83,-960.87 188.86,-969.37 194.81,-969.37"/>
</g>
<!-- llm_ext -->
<g id="node4" class="node">
<title>llm_ext</title>
<path fill="#e8f5e9" stroke="#2e7d32" stroke-width="2.5" d="M489.3,-963.08C489.3,-963.08 344.37,-963.08 344.37,-963.08 338.37,-963.08 332.37,-957.08 332.37,-951.08 332.37,-951.08 332.37,-900.92 332.37,-900.92 332.37,-894.92 338.37,-888.92 344.37,-888.92 344.37,-888.92 489.3,-888.92 489.3,-888.92 495.3,-888.92 501.3,-894.92 501.3,-900.92 501.3,-900.92 501.3,-951.08 501.3,-951.08 501.3,-957.08 495.3,-963.08 489.3,-963.08"/>
<text xml:space="preserve" text-anchor="middle" x="416.83" y="-942.55" font-family="Arial" font-size="11.00">Внешние LLM&#45;провайдеры</text>
<text xml:space="preserve" text-anchor="middle" x="416.83" y="-929.05" font-family="Arial" font-size="11.00">OpenAI / Anthropic / Google</text>
<text xml:space="preserve" text-anchor="middle" x="416.83" y="-915.55" font-family="Arial" font-size="11.00">Критериальный scoring</text>
<text xml:space="preserve" text-anchor="middle" x="416.83" y="-902.05" font-family="Arial" font-size="11.00">в контуре Reqcore</text>
</g>
<!-- backend&#45;&gt;llm_ext -->
<g id="edge3" class="edge">
<title>backend&#45;&gt;llm_ext</title>
<path fill="none" stroke="#263238" stroke-width="2.2" d="M416.83,-1023.44C416.83,-1023.44 416.83,-975.96 416.83,-975.96"/>
<polygon fill="#263238" stroke="#263238" stroke-width="2.2" points="419.81,-975.96 416.83,-967.46 413.86,-975.96 419.81,-975.96"/>
<text xml:space="preserve" text-anchor="middle" x="437.46" y="-990.3" font-family="Arial" font-size="11.00">LLM API</text>
</g>
<!-- api -->
<g id="node5" class="node">
<title>api</title>
<path fill="#e8f5e9" stroke="#2e7d32" stroke-width="2.5" d="M309.67,-824.08C309.67,-824.08 115.99,-824.08 115.99,-824.08 109.99,-824.08 103.99,-818.08 103.99,-812.08 103.99,-812.08 103.99,-761.92 103.99,-761.92 103.99,-755.92 109.99,-749.92 115.99,-749.92 115.99,-749.92 309.67,-749.92 309.67,-749.92 315.67,-749.92 321.67,-755.92 321.67,-761.92 321.67,-761.92 321.67,-812.08 321.67,-812.08 321.67,-818.08 315.67,-824.08 309.67,-824.08"/>
<text xml:space="preserve" text-anchor="middle" x="212.83" y="-803.55" font-family="Arial" font-size="11.00">API ранжирования</text>
<text xml:space="preserve" text-anchor="middle" x="212.83" y="-790.05" font-family="Arial" font-size="11.00">(ATS Semantic Ranking Engine API)</text>
<text xml:space="preserve" text-anchor="middle" x="212.83" y="-776.55" font-family="Arial" font-size="11.00">FastAPI: индекс, ранг, оценка</text>
<text xml:space="preserve" text-anchor="middle" x="212.83" y="-763.05" font-family="Arial" font-size="11.00">(/index/candidate, /search/rank, /score)</text>
</g>
<!-- backend&#45;&gt;api -->
<!-- db&#45;&gt;api -->
<!-- bienv -->
<g id="node6" class="node">
<title>bienv</title>
<path fill="#e0f2f1" stroke="#00695c" stroke-width="2.5" d="M277.92,-686.33C277.92,-686.33 145.74,-686.33 145.74,-686.33 139.74,-686.33 133.74,-680.33 133.74,-674.33 133.74,-674.33 133.74,-637.67 133.74,-637.67 133.74,-631.67 139.74,-625.67 145.74,-625.67 145.74,-625.67 277.92,-625.67 277.92,-625.67 283.92,-625.67 289.92,-631.67 289.92,-637.67 289.92,-637.67 289.92,-674.33 289.92,-674.33 289.92,-680.33 283.92,-686.33 277.92,-686.33"/>
<text xml:space="preserve" text-anchor="middle" x="211.83" y="-665.8" font-family="Arial" font-size="11.00">Среда bi&#45;encoder</text>
<text xml:space="preserve" text-anchor="middle" x="211.83" y="-652.3" font-family="Arial" font-size="11.00">(cointegrated/rubert&#45;tiny2)</text>
<text xml:space="preserve" text-anchor="middle" x="211.83" y="-638.8" font-family="Arial" font-size="11.00">Косинусное сходство</text>
</g>
<!-- api&#45;&gt;bienv -->
<g id="edge4" class="edge">
<title>api&#45;&gt;bienv</title>
<path fill="none" stroke="#263238" stroke-width="2.2" d="M211.83,-748.76C211.83,-748.76 211.83,-699.28 211.83,-699.28"/>
<polygon fill="#263238" stroke="#263238" stroke-width="2.2" points="214.81,-699.28 211.83,-690.78 208.86,-699.28 214.81,-699.28"/>
</g>
<!-- pipeline -->
<g id="node8" class="node">
<title>pipeline</title>
<path fill="#e8f5e9" stroke="#2e7d32" stroke-width="2.5" d="M562.17,-693.08C562.17,-693.08 443.49,-693.08 443.49,-693.08 437.49,-693.08 431.49,-687.08 431.49,-681.08 431.49,-681.08 431.49,-630.92 431.49,-630.92 431.49,-624.92 437.49,-618.92 443.49,-618.92 443.49,-618.92 562.17,-618.92 562.17,-618.92 568.17,-618.92 574.17,-624.92 574.17,-630.92 574.17,-630.92 574.17,-681.08 574.17,-681.08 574.17,-687.08 568.17,-693.08 562.17,-693.08"/>
<text xml:space="preserve" text-anchor="middle" x="502.83" y="-672.55" font-family="Arial" font-size="11.00">Офлайн&#45;пайплайн</text>
<text xml:space="preserve" text-anchor="middle" x="502.83" y="-659.05" font-family="Arial" font-size="11.00">Подготовка пар, split,</text>
<text xml:space="preserve" text-anchor="middle" x="502.83" y="-645.55" font-family="Arial" font-size="11.00">fine&#45;tuning</text>
<text xml:space="preserve" text-anchor="middle" x="502.83" y="-632.05" font-family="Arial" font-size="11.00">скрипты Python 01–17</text>
</g>
<!-- api&#45;&gt;pipeline -->
<!-- index -->
<g id="node7" class="node">
<title>index</title>
<path fill="#e8f5e9" stroke="#2e7d32" stroke-width="2.5" d="M312.42,-570.33C312.42,-570.33 105.24,-570.33 105.24,-570.33 99.24,-570.33 93.24,-564.33 93.24,-558.33 93.24,-558.33 93.24,-521.67 93.24,-521.67 93.24,-515.67 99.24,-509.67 105.24,-509.67 105.24,-509.67 312.42,-509.67 312.42,-509.67 318.42,-509.67 324.42,-515.67 324.42,-521.67 324.42,-521.67 324.42,-558.33 324.42,-558.33 324.42,-564.33 318.42,-570.33 312.42,-570.33"/>
<text xml:space="preserve" text-anchor="middle" x="208.83" y="-549.8" font-family="Arial" font-size="11.00">Индекс кандидатов</text>
<text xml:space="preserve" text-anchor="middle" x="208.83" y="-536.3" font-family="Arial" font-size="11.00">индекс в памяти (CANDIDATE_INDEX)</text>
<text xml:space="preserve" text-anchor="middle" x="208.83" y="-522.8" font-family="Arial" font-size="11.00">для API ранжирования</text>
</g>
<!-- bienv&#45;&gt;index -->
<g id="edge5" class="edge">
<title>bienv&#45;&gt;index</title>
<path fill="none" stroke="#263238" stroke-width="2.2" d="M211.83,-624.61C211.83,-624.61 211.83,-583.25 211.83,-583.25"/>
<polygon fill="#263238" stroke="#263238" stroke-width="2.2" points="214.81,-583.25 211.83,-574.75 208.86,-583.25 214.81,-583.25"/>
</g>
<!-- artifacts -->
<g id="node9" class="node">
<title>artifacts</title>
<path fill="#f1f8e9" stroke="#558b2f" stroke-width="2.5" d="M566.8,-570.33C566.8,-570.33 442.87,-570.33 442.87,-570.33 436.87,-570.33 430.87,-564.33 430.87,-558.33 430.87,-558.33 430.87,-521.67 430.87,-521.67 430.87,-515.67 436.87,-509.67 442.87,-509.67 442.87,-509.67 566.8,-509.67 566.8,-509.67 572.8,-509.67 578.8,-515.67 578.8,-521.67 578.8,-521.67 578.8,-558.33 578.8,-558.33 578.8,-564.33 572.8,-570.33 566.8,-570.33"/>
<text xml:space="preserve" text-anchor="middle" x="504.83" y="-549.8" font-family="Arial" font-size="11.00">Артефакты данных</text>
<text xml:space="preserve" text-anchor="middle" x="504.83" y="-536.3" font-family="Arial" font-size="11.00">TSV / SQLite / local files</text>
<text xml:space="preserve" text-anchor="middle" x="504.83" y="-522.8" font-family="Arial" font-size="11.00">train / val / test</text>
</g>
<!-- pipeline&#45;&gt;artifacts -->
<g id="edge6" class="edge">
<title>pipeline&#45;&gt;artifacts</title>
<path fill="none" stroke="#263238" stroke-width="2.2" d="M502.83,-617.7C502.83,-617.7 502.83,-583.14 502.83,-583.14"/>
<polygon fill="#263238" stroke="#263238" stroke-width="2.2" points="505.81,-583.14 502.83,-574.64 499.86,-583.14 505.81,-583.14"/>
</g>
<!-- metrics -->
<g id="node10" class="node">
<title>metrics</title>
<path fill="#e0f2f1" stroke="#00695c" stroke-width="2.5" d="M618.42,-452.08C618.42,-452.08 447.24,-452.08 447.24,-452.08 441.24,-452.08 435.24,-446.08 435.24,-440.08 435.24,-440.08 435.24,-389.92 435.24,-389.92 435.24,-383.92 441.24,-377.92 447.24,-377.92 447.24,-377.92 618.42,-377.92 618.42,-377.92 624.42,-377.92 630.42,-383.92 630.42,-389.92 630.42,-389.92 630.42,-440.08 630.42,-440.08 630.42,-446.08 624.42,-452.08 618.42,-452.08"/>
<text xml:space="preserve" text-anchor="middle" x="532.83" y="-431.55" font-family="Arial" font-size="11.00">Офлайн&#45;метрики ранжирования</text>
<text xml:space="preserve" text-anchor="middle" x="532.83" y="-418.05" font-family="Arial" font-size="11.00">NDCG на K (NDCG@K)</text>
<text xml:space="preserve" text-anchor="middle" x="532.83" y="-404.55" font-family="Arial" font-size="11.00">Precision@K, Recall@K, MRR</text>
<text xml:space="preserve" text-anchor="middle" x="532.83" y="-391.05" font-family="Arial" font-size="11.00">val/test split</text>
</g>
<!-- artifacts&#45;&gt;metrics -->
<g id="edge7" class="edge">
<title>artifacts&#45;&gt;metrics</title>
<path fill="none" stroke="#263238" stroke-width="2.2" d="M507.02,-508.46C507.02,-508.46 507.02,-465.06 507.02,-465.06"/>
<polygon fill="#263238" stroke="#263238" stroke-width="2.2" points="510,-465.06 507.02,-456.56 504.05,-465.06 510,-465.06"/>
</g>
<!-- metrics&#45;&gt;bienv -->
<g id="edge11" class="edge">
<title>metrics&#45;&gt;bienv</title>
<path fill="none" stroke="#263238" stroke-width="2.2" d="M434.08,-415C405.39,-415 381.62,-415 381.62,-415 381.62,-415 381.62,-666 381.62,-666 381.62,-666 302.59,-666 302.59,-666"/>
<polygon fill="#263238" stroke="#263238" stroke-width="2.2" points="302.59,-663.03 294.09,-666 302.59,-668.98 302.59,-663.03"/>
<text xml:space="preserve" text-anchor="middle" x="690.33" y="-536.3" font-family="Arial" font-size="11.00">модель</text>
</g>
<!-- vectordb -->
<g id="node11" class="node">
<title>vectordb</title>
<path fill="#fff8e1" stroke="#f57f17" stroke-width="2.5" stroke-dasharray="5,2" d="M934.92,-1209.08C934.92,-1209.08 796.74,-1209.08 796.74,-1209.08 790.74,-1209.08 784.74,-1203.08 784.74,-1197.08 784.74,-1197.08 784.74,-1146.92 784.74,-1146.92 784.74,-1140.92 790.74,-1134.92 796.74,-1134.92 796.74,-1134.92 934.92,-1134.92 934.92,-1134.92 940.92,-1134.92 946.92,-1140.92 946.92,-1146.92 946.92,-1146.92 946.92,-1197.08 946.92,-1197.08 946.92,-1203.08 940.92,-1209.08 934.92,-1209.08"/>
<text xml:space="preserve" text-anchor="middle" x="865.83" y="-1188.55" font-family="Arial" font-size="11.00">Векторная БД</text>
<text xml:space="preserve" text-anchor="middle" x="865.83" y="-1175.05" font-family="Arial" font-size="11.00">(ANN / Vector DB)</text>
<text xml:space="preserve" text-anchor="middle" x="865.83" y="-1161.55" font-family="Arial" font-size="11.00">Milvus, DiskANN, SPANN</text>
<text xml:space="preserve" text-anchor="middle" x="865.83" y="-1148.05" font-family="Arial" font-size="11.00">масштабирование поиска</text>
</g>
<!-- metrics&#45;&gt;vectordb -->
<!-- leg_assumption -->
<g id="node13" class="node">
<title>leg_assumption</title>
<path fill="#fff8e1" stroke="#f57f17" stroke-width="2.5" stroke-dasharray="5,2" d="M604.55,-130C604.55,-130 461.12,-130 461.12,-130 455.12,-130 449.12,-124 449.12,-118 449.12,-118 449.12,-106 449.12,-106 449.12,-100 455.12,-94 461.12,-94 461.12,-94 604.55,-94 604.55,-94 610.55,-94 616.55,-100 616.55,-106 616.55,-106 616.55,-118 616.55,-118 616.55,-124 610.55,-130 604.55,-130"/>
<text xml:space="preserve" text-anchor="middle" x="532.83" y="-108.3" font-family="Arial" font-size="11.00">Архитектурное допущение</text>
</g>
<!-- metrics&#45;&gt;leg_assumption -->
<!-- rerank -->
<g id="node12" class="node">
<title>rerank</title>
<path fill="#f3e5f5" stroke="#6a1b9a" stroke-width="2.5" stroke-dasharray="5,2" d="M1170.17,-1202.33C1170.17,-1202.33 1021.49,-1202.33 1021.49,-1202.33 1015.49,-1202.33 1009.49,-1196.33 1009.49,-1190.33 1009.49,-1190.33 1009.49,-1153.67 1009.49,-1153.67 1009.49,-1147.67 1015.49,-1141.67 1021.49,-1141.67 1021.49,-1141.67 1170.17,-1141.67 1170.17,-1141.67 1176.17,-1141.67 1182.17,-1147.67 1182.17,-1153.67 1182.17,-1153.67 1182.17,-1190.33 1182.17,-1190.33 1182.17,-1196.33 1176.17,-1202.33 1170.17,-1202.33"/>
<text xml:space="preserve" text-anchor="middle" x="1095.83" y="-1181.8" font-family="Arial" font-size="11.00">Слой переранжирования</text>
<text xml:space="preserve" text-anchor="middle" x="1095.83" y="-1168.3" font-family="Arial" font-size="11.00">(LTR / fair ranking)</text>
<text xml:space="preserve" text-anchor="middle" x="1095.83" y="-1154.8" font-family="Arial" font-size="11.00">Переранжирование и аудит</text>
</g>
<!-- leg_note -->
<g id="node19" class="node">
<title>leg_note</title>
<path fill="lightgrey" stroke="none" stroke-width="2.5" d="M1138.46,-39.75C1138.46,-39.75 485.21,-39.75 485.21,-39.75 482.96,-39.75 480.71,-37.5 480.71,-35.25 480.71,-35.25 480.71,-30.75 480.71,-30.75 480.71,-28.5 482.96,-26.25 485.21,-26.25 485.21,-26.25 1138.46,-26.25 1138.46,-26.25 1140.71,-26.25 1142.96,-28.5 1142.96,-30.75 1142.96,-30.75 1142.96,-35.25 1142.96,-35.25 1142.96,-37.5 1140.71,-39.75 1138.46,-39.75"/>
<text xml:space="preserve" text-anchor="start" x="480.71" y="-30.3" font-family="Arial" font-size="11.00"> &#160;&#160;&#160;&#160;&#160;</text>
<text xml:space="preserve" text-anchor="start" x="498.71" y="-30.3" font-family="Arial" font-size="10.00" fill="#546e7a">Светло&#45;зелёная заливка = исследованные данные; тёмно&#45;зелёная = реализованные контейнеры; бирюзовая = экспериментальный блок.</text>
<text xml:space="preserve" text-anchor="start" x="1130.96" y="-30.3" font-family="Arial" font-size="11.00"> &#160;&#160;&#160;</text>
</g>
<!-- leg_assumption&#45;&gt;leg_note -->
<!-- leg_approach -->
<g id="node14" class="node">
<title>leg_approach</title>
<path fill="#e3f2fd" stroke="#1565c0" stroke-width="2.5" d="M825.03,-135.58C825.03,-135.58 690.63,-135.58 690.63,-135.58 684.63,-135.58 678.63,-129.58 678.63,-123.58 678.63,-123.58 678.63,-100.42 678.63,-100.42 678.63,-94.42 684.63,-88.42 690.63,-88.42 690.63,-88.42 825.03,-88.42 825.03,-88.42 831.03,-88.42 837.03,-94.42 837.03,-100.42 837.03,-100.42 837.03,-123.58 837.03,-123.58 837.03,-129.58 831.03,-135.58 825.03,-135.58"/>
<text xml:space="preserve" text-anchor="middle" x="757.83" y="-115.05" font-family="Arial" font-size="11.00">Архитектурный подход</text>
<text xml:space="preserve" text-anchor="middle" x="757.83" y="-101.55" font-family="Arial" font-size="11.00">(граница системы)</text>
</g>
<!-- leg_concept -->
<g id="node15" class="node">
<title>leg_concept</title>
<path fill="#f3e5f5" stroke="#6a1b9a" stroke-width="2.5" stroke-dasharray="5,2" d="M1063.3,-130C1063.3,-130 912.37,-130 912.37,-130 906.37,-130 900.37,-124 900.37,-118 900.37,-118 900.37,-106 900.37,-106 900.37,-100 906.37,-94 912.37,-94 912.37,-94 1063.3,-94 1063.3,-94 1069.3,-94 1075.3,-100 1075.3,-106 1075.3,-106 1075.3,-118 1075.3,-118 1075.3,-124 1069.3,-130 1063.3,-130"/>
<text xml:space="preserve" text-anchor="middle" x="987.83" y="-108.3" font-family="Arial" font-size="11.00">Концептуальный компонент</text>
</g>
<!-- leg_studied -->
<g id="node16" class="node">
<title>leg_studied</title>
<path fill="#f1f8e9" stroke="#558b2f" stroke-width="2.5" d="M1285.03,-135.58C1285.03,-135.58 1150.63,-135.58 1150.63,-135.58 1144.63,-135.58 1138.63,-129.58 1138.63,-123.58 1138.63,-123.58 1138.63,-100.42 1138.63,-100.42 1138.63,-94.42 1144.63,-88.42 1150.63,-88.42 1150.63,-88.42 1285.03,-88.42 1285.03,-88.42 1291.03,-88.42 1297.03,-94.42 1297.03,-100.42 1297.03,-100.42 1297.03,-123.58 1297.03,-123.58 1297.03,-129.58 1291.03,-135.58 1285.03,-135.58"/>
<text xml:space="preserve" text-anchor="middle" x="1217.83" y="-115.05" font-family="Arial" font-size="11.00">Исследовано</text>
<text xml:space="preserve" text-anchor="middle" x="1217.83" y="-101.55" font-family="Arial" font-size="11.00">(корпус, артефакты)</text>
</g>
<!-- leg_implemented -->
<g id="node17" class="node">
<title>leg_implemented</title>
<path fill="#e8f5e9" stroke="#2e7d32" stroke-width="2.5" d="M1505.03,-135.58C1505.03,-135.58 1370.63,-135.58 1370.63,-135.58 1364.63,-135.58 1358.63,-129.58 1358.63,-123.58 1358.63,-123.58 1358.63,-100.42 1358.63,-100.42 1358.63,-94.42 1364.63,-88.42 1370.63,-88.42 1370.63,-88.42 1505.03,-88.42 1505.03,-88.42 1511.03,-88.42 1517.03,-94.42 1517.03,-100.42 1517.03,-100.42 1517.03,-123.58 1517.03,-123.58 1517.03,-129.58 1511.03,-135.58 1505.03,-135.58"/>
<text xml:space="preserve" text-anchor="middle" x="1437.83" y="-115.05" font-family="Arial" font-size="11.00">Реализовано</text>
<text xml:space="preserve" text-anchor="middle" x="1437.83" y="-101.55" font-family="Arial" font-size="11.00">(код прототипа)</text>
</g>
<!-- leg_experimental -->
<g id="node18" class="node">
<title>leg_experimental</title>
<path fill="#e0f2f1" stroke="#00695c" stroke-width="2.5" d="M1756.3,-135.58C1756.3,-135.58 1593.37,-135.58 1593.37,-135.58 1587.37,-135.58 1581.37,-129.58 1581.37,-123.58 1581.37,-123.58 1581.37,-100.42 1581.37,-100.42 1581.37,-94.42 1587.37,-88.42 1593.37,-88.42 1593.37,-88.42 1756.3,-88.42 1756.3,-88.42 1762.3,-88.42 1768.3,-94.42 1768.3,-100.42 1768.3,-100.42 1768.3,-123.58 1768.3,-123.58 1768.3,-129.58 1762.3,-135.58 1756.3,-135.58"/>
<text xml:space="preserve" text-anchor="middle" x="1674.83" y="-115.05" font-family="Arial" font-size="11.00">Экспериментально проверено</text>
<text xml:space="preserve" text-anchor="middle" x="1674.83" y="-101.55" font-family="Arial" font-size="11.00">(метрики, E2E)</text>
</g>
<g id="clust7" class="cluster">
<title>cluster_legend</title>
<path fill="#fafafa" stroke="#cfd8dc" d="M428.9,-8C428.9,-8 1788.13,-8 1788.13,-8 1794.13,-8 1800.13,-14 1800.13,-20 1800.13,-20 1800.13,-189.16 1800.13,-189.16 1800.13,-195.16 1794.13,-201.16 1788.13,-201.16 1788.13,-201.16 428.9,-201.16 428.9,-201.16 422.9,-201.16 416.9,-195.16 416.9,-189.16 416.9,-189.16 416.9,-20 416.9,-20 416.9,-14 422.9,-8 428.9,-8"/>
<text xml:space="preserve" text-anchor="start" x="428.9" y="-183.71" font-family="Arial" font-weight="bold" font-size="11.00">Легенда SAT поверх нотации C4 Container</text>
<text xml:space="preserve" text-anchor="start" x="428.9" y="-163.91" font-family="Arial" font-size="10.00" fill="#546e7a">C4 задаёт тип элемента (контейнер, БД, внешняя система); SAT задаёт, насколько утверждение о нём подтверждено в диссертации.</text>
</g></g>
</svg>
